<svg width="101" height="101" viewBox="0 0 101 101" fill="none" xmlns="http://www.w3.org/2000/svg">
<g filter="url(#filter0_d_2085_1001)">
<rect width="93" height="93" rx="8" fill="url(#paint0_linear_2085_1001)"/>
</g>
<path d="M16.8438 76.8594H13.9453L13.9297 75.4297H16.4609C16.888 75.4297 17.25 75.3672 17.5469 75.2422C17.849 75.112 18.0781 74.9271 18.2344 74.6875C18.3906 74.4427 18.4688 74.1484 18.4688 73.8047C18.4688 73.4245 18.3958 73.1146 18.25 72.875C18.1042 72.6354 17.8802 72.4609 17.5781 72.3516C17.2812 72.2422 16.901 72.1875 16.4375 72.1875H14.5391V82H12.5781V70.625H16.4375C17.0625 70.625 17.6198 70.6849 18.1094 70.8047C18.6042 70.9245 19.0234 71.112 19.3672 71.3672C19.7161 71.6172 19.9792 71.9349 20.1562 72.3203C20.3385 72.7057 20.4297 73.1641 20.4297 73.6953C20.4297 74.1641 20.3177 74.5938 20.0938 74.9844C19.8698 75.3698 19.5391 75.6849 19.1016 75.9297C18.6641 76.1745 18.1198 76.3203 17.4688 76.3672L16.8438 76.8594ZM16.7578 82H13.3281L14.2109 80.4453H16.7578C17.2005 80.4453 17.5703 80.3724 17.8672 80.2266C18.1641 80.0755 18.3854 79.8698 18.5312 79.6094C18.6823 79.3438 18.7578 79.0339 18.7578 78.6797C18.7578 78.3099 18.6927 77.9896 18.5625 77.7188C18.4323 77.4427 18.2266 77.2318 17.9453 77.0859C17.6641 76.9349 17.2969 76.8594 16.8438 76.8594H14.6406L14.6562 75.4297H17.5234L17.9688 75.9688C18.5938 75.9896 19.1068 76.1276 19.5078 76.3828C19.9141 76.638 20.2161 76.9688 20.4141 77.375C20.612 77.7812 20.7109 78.2188 20.7109 78.6875C20.7109 79.4115 20.5521 80.0182 20.2344 80.5078C19.9219 80.9974 19.4714 81.3698 18.8828 81.625C18.2943 81.875 17.5859 82 16.7578 82ZM22.1406 77.8672V77.6875C22.1406 77.0781 22.2292 76.513 22.4062 75.9922C22.5833 75.4661 22.8385 75.0104 23.1719 74.625C23.5104 74.2344 23.9219 73.9323 24.4062 73.7188C24.8958 73.5 25.4479 73.3906 26.0625 73.3906C26.6823 73.3906 27.2344 73.5 27.7188 73.7188C28.2083 73.9323 28.6224 74.2344 28.9609 74.625C29.2995 75.0104 29.5573 75.4661 29.7344 75.9922C29.9115 76.513 30 77.0781 30 77.6875V77.8672C30 78.4766 29.9115 79.0417 29.7344 79.5625C29.5573 80.0833 29.2995 80.5391 28.9609 80.9297C28.6224 81.3151 28.2109 81.6172 27.7266 81.8359C27.2422 82.0495 26.6927 82.1562 26.0781 82.1562C25.4583 82.1562 24.9036 82.0495 24.4141 81.8359C23.9297 81.6172 23.5182 81.3151 23.1797 80.9297C22.8411 80.5391 22.5833 80.0833 22.4062 79.5625C22.2292 79.0417 22.1406 78.4766 22.1406 77.8672ZM24.0234 77.6875V77.8672C24.0234 78.2474 24.0625 78.6068 24.1406 78.9453C24.2188 79.2839 24.3411 79.5807 24.5078 79.8359C24.6745 80.0911 24.888 80.2917 25.1484 80.4375C25.4089 80.5833 25.7188 80.6562 26.0781 80.6562C26.4271 80.6562 26.7292 80.5833 26.9844 80.4375C27.2448 80.2917 27.4583 80.0911 27.625 79.8359C27.7917 79.5807 27.9141 79.2839 27.9922 78.9453C28.0755 78.6068 28.1172 78.2474 28.1172 77.8672V77.6875C28.1172 77.3125 28.0755 76.9583 27.9922 76.625C27.9141 76.2865 27.7891 75.987 27.6172 75.7266C27.4505 75.4661 27.237 75.263 26.9766 75.1172C26.7214 74.9661 26.4167 74.8906 26.0625 74.8906C25.7083 74.8906 25.401 74.9661 25.1406 75.1172C24.8854 75.263 24.6745 75.4661 24.5078 75.7266C24.3411 75.987 24.2188 76.2865 24.1406 76.625C24.0625 76.9583 24.0234 77.3125 24.0234 77.6875ZM31.2188 77.8672V77.6875C31.2188 77.0781 31.3073 76.513 31.4844 75.9922C31.6615 75.4661 31.9167 75.0104 32.25 74.625C32.5885 74.2344 33 73.9323 33.4844 73.7188C33.974 73.5 34.526 73.3906 35.1406 73.3906C35.7604 73.3906 36.3125 73.5 36.7969 73.7188C37.2865 73.9323 37.7005 74.2344 38.0391 74.625C38.3776 75.0104 38.6354 75.4661 38.8125 75.9922C38.9896 76.513 39.0781 77.0781 39.0781 77.6875V77.8672C39.0781 78.4766 38.9896 79.0417 38.8125 79.5625C38.6354 80.0833 38.3776 80.5391 38.0391 80.9297C37.7005 81.3151 37.2891 81.6172 36.8047 81.8359C36.3203 82.0495 35.7708 82.1562 35.1562 82.1562C34.5365 82.1562 33.9818 82.0495 33.4922 81.8359C33.0078 81.6172 32.5964 81.3151 32.2578 80.9297C31.9193 80.5391 31.6615 80.0833 31.4844 79.5625C31.3073 79.0417 31.2188 78.4766 31.2188 77.8672ZM33.1016 77.6875V77.8672C33.1016 78.2474 33.1406 78.6068 33.2188 78.9453C33.2969 79.2839 33.4193 79.5807 33.5859 79.8359C33.7526 80.0911 33.9661 80.2917 34.2266 80.4375C34.487 80.5833 34.7969 80.6562 35.1562 80.6562C35.5052 80.6562 35.8073 80.5833 36.0625 80.4375C36.3229 80.2917 36.5365 80.0911 36.7031 79.8359C36.8698 79.5807 36.9922 79.2839 37.0703 78.9453C37.1536 78.6068 37.1953 78.2474 37.1953 77.8672V77.6875C37.1953 77.3125 37.1536 76.9583 37.0703 76.625C36.9922 76.2865 36.8672 75.987 36.6953 75.7266C36.5286 75.4661 36.3151 75.263 36.0547 75.1172C35.7995 74.9661 35.4948 74.8906 35.1406 74.8906C34.7865 74.8906 34.4792 74.9661 34.2188 75.1172C33.9635 75.263 33.7526 75.4661 33.5859 75.7266C33.4193 75.987 33.2969 76.2865 33.2188 76.625C33.1406 76.9583 33.1016 77.3125 33.1016 77.6875ZM44.5312 73.5469V74.9219H39.7656V73.5469H44.5312ZM41.1406 71.4766H43.0234V79.6641C43.0234 79.9245 43.0599 80.125 43.1328 80.2656C43.2109 80.401 43.3177 80.4922 43.4531 80.5391C43.5885 80.5859 43.7474 80.6094 43.9297 80.6094C44.0599 80.6094 44.1849 80.6016 44.3047 80.5859C44.4245 80.5703 44.5208 80.5547 44.5938 80.5391L44.6016 81.9766C44.4453 82.0234 44.263 82.0651 44.0547 82.1016C43.8516 82.138 43.6172 82.1562 43.3516 82.1562C42.9193 82.1562 42.5365 82.0807 42.2031 81.9297C41.8698 81.7734 41.6094 81.5208 41.4219 81.1719C41.2344 80.8229 41.1406 80.3594 41.1406 79.7812V71.4766ZM50.7266 79.7109C50.7266 79.5234 50.6797 79.3542 50.5859 79.2031C50.4922 79.0469 50.3125 78.9062 50.0469 78.7812C49.7865 78.6562 49.401 78.5417 48.8906 78.4375C48.4427 78.3385 48.0312 78.2214 47.6562 78.0859C47.2865 77.9453 46.9688 77.776 46.7031 77.5781C46.4375 77.3802 46.2318 77.1458 46.0859 76.875C45.9401 76.6042 45.8672 76.2917 45.8672 75.9375C45.8672 75.5938 45.9427 75.2682 46.0938 74.9609C46.2448 74.6536 46.4609 74.3828 46.7422 74.1484C47.0234 73.9141 47.3646 73.7292 47.7656 73.5938C48.1719 73.4583 48.625 73.3906 49.125 73.3906C49.8333 73.3906 50.4401 73.5104 50.9453 73.75C51.4557 73.9844 51.8464 74.3047 52.1172 74.7109C52.388 75.112 52.5234 75.5651 52.5234 76.0703H50.6406C50.6406 75.8464 50.5833 75.638 50.4688 75.4453C50.3594 75.2474 50.1927 75.0885 49.9688 74.9688C49.7448 74.8438 49.4635 74.7812 49.125 74.7812C48.8021 74.7812 48.5339 74.8333 48.3203 74.9375C48.112 75.0365 47.9557 75.1667 47.8516 75.3281C47.7526 75.4896 47.7031 75.6667 47.7031 75.8594C47.7031 76 47.7292 76.1276 47.7812 76.2422C47.8385 76.3516 47.9323 76.4531 48.0625 76.5469C48.1927 76.6354 48.3698 76.7188 48.5938 76.7969C48.8229 76.875 49.1094 76.9505 49.4531 77.0234C50.099 77.1589 50.6536 77.3333 51.1172 77.5469C51.5859 77.7552 51.9453 78.026 52.1953 78.3594C52.4453 78.6875 52.5703 79.1042 52.5703 79.6094C52.5703 79.9844 52.4896 80.3281 52.3281 80.6406C52.1719 80.9479 51.9427 81.2161 51.6406 81.4453C51.3385 81.6693 50.9766 81.8438 50.5547 81.9688C50.138 82.0938 49.6693 82.1562 49.1484 82.1562C48.3828 82.1562 47.7344 82.0208 47.2031 81.75C46.6719 81.474 46.2682 81.1224 45.9922 80.6953C45.7214 80.263 45.5859 79.8151 45.5859 79.3516H47.4062C47.4271 79.7005 47.5234 79.9792 47.6953 80.1875C47.8724 80.3906 48.0911 80.5391 48.3516 80.6328C48.6172 80.7214 48.8906 80.7656 49.1719 80.7656C49.5104 80.7656 49.7943 80.7214 50.0234 80.6328C50.2526 80.5391 50.4271 80.4141 50.5469 80.2578C50.6667 80.0964 50.7266 79.9141 50.7266 79.7109ZM58.0938 73.5469V74.9219H53.3281V73.5469H58.0938ZM54.7031 71.4766H56.5859V79.6641C56.5859 79.9245 56.6224 80.125 56.6953 80.2656C56.7734 80.401 56.8802 80.4922 57.0156 80.5391C57.151 80.5859 57.3099 80.6094 57.4922 80.6094C57.6224 80.6094 57.7474 80.6016 57.8672 80.5859C57.987 80.5703 58.0833 80.5547 58.1562 80.5391L58.1641 81.9766C58.0078 82.0234 57.8255 82.0651 57.6172 82.1016C57.4141 82.138 57.1797 82.1562 56.9141 82.1562C56.4818 82.1562 56.099 82.0807 55.7656 81.9297C55.4323 81.7734 55.1719 81.5208 54.9844 81.1719C54.7969 80.8229 54.7031 80.3594 54.7031 79.7812V71.4766ZM61.4375 75.1562V82H59.5547V73.5469H61.3516L61.4375 75.1562ZM64.0234 73.4922L64.0078 75.2422C63.8932 75.2214 63.7682 75.2057 63.6328 75.1953C63.5026 75.1849 63.3724 75.1797 63.2422 75.1797C62.9193 75.1797 62.6354 75.2266 62.3906 75.3203C62.1458 75.4089 61.9401 75.5391 61.7734 75.7109C61.612 75.8776 61.487 76.0807 61.3984 76.3203C61.3099 76.5599 61.2578 76.8281 61.2422 77.125L60.8125 77.1562C60.8125 76.625 60.8646 76.1328 60.9688 75.6797C61.0729 75.2266 61.2292 74.8281 61.4375 74.4844C61.651 74.1406 61.9167 73.8724 62.2344 73.6797C62.5573 73.487 62.9297 73.3906 63.3516 73.3906C63.4661 73.3906 63.5885 73.401 63.7188 73.4219C63.8542 73.4427 63.9557 73.4661 64.0234 73.4922ZM69.6875 80.3047V76.2734C69.6875 75.9714 69.6328 75.7109 69.5234 75.4922C69.4141 75.2734 69.2474 75.1042 69.0234 74.9844C68.8047 74.8646 68.5286 74.8047 68.1953 74.8047C67.888 74.8047 67.6224 74.8568 67.3984 74.9609C67.1745 75.0651 67 75.2057 66.875 75.3828C66.75 75.5599 66.6875 75.7604 66.6875 75.9844H64.8125C64.8125 75.651 64.8932 75.3281 65.0547 75.0156C65.2161 74.7031 65.4505 74.4245 65.7578 74.1797C66.0651 73.9349 66.4323 73.7422 66.8594 73.6016C67.2865 73.4609 67.7656 73.3906 68.2969 73.3906C68.9323 73.3906 69.4948 73.4974 69.9844 73.7109C70.4792 73.9245 70.8672 74.2474 71.1484 74.6797C71.4349 75.1068 71.5781 75.6432 71.5781 76.2891V80.0469C71.5781 80.4323 71.6042 80.7786 71.6562 81.0859C71.7135 81.388 71.7943 81.651 71.8984 81.875V82H69.9688C69.8802 81.7969 69.8099 81.5391 69.7578 81.2266C69.7109 80.9089 69.6875 80.6016 69.6875 80.3047ZM69.9609 76.8594L69.9766 78.0234H68.625C68.276 78.0234 67.9688 78.0573 67.7031 78.125C67.4375 78.1875 67.2161 78.2812 67.0391 78.4062C66.862 78.5312 66.7292 78.6823 66.6406 78.8594C66.5521 79.0365 66.5078 79.237 66.5078 79.4609C66.5078 79.6849 66.5599 79.8906 66.6641 80.0781C66.7682 80.2604 66.9193 80.4036 67.1172 80.5078C67.3203 80.612 67.5651 80.6641 67.8516 80.6641C68.237 80.6641 68.5729 80.5859 68.8594 80.4297C69.151 80.2682 69.3802 80.0729 69.5469 79.8438C69.7135 79.6094 69.8021 79.388 69.8125 79.1797L70.4219 80.0156C70.3594 80.2292 70.2526 80.4583 70.1016 80.7031C69.9505 80.9479 69.7526 81.1823 69.5078 81.4062C69.2682 81.625 68.9792 81.8047 68.6406 81.9453C68.3073 82.0859 67.9219 82.1562 67.4844 82.1562C66.9323 82.1562 66.4401 82.0469 66.0078 81.8281C65.5755 81.6042 65.237 81.3047 64.9922 80.9297C64.7474 80.5495 64.625 80.1198 64.625 79.6406C64.625 79.1927 64.7083 78.7969 64.875 78.4531C65.0469 78.1042 65.2969 77.8125 65.625 77.5781C65.9583 77.3438 66.3646 77.1667 66.8438 77.0469C67.3229 76.9219 67.8698 76.8594 68.4844 76.8594H69.9609ZM75.4375 75.1719V85.25H73.5547V73.5469H75.2891L75.4375 75.1719ZM80.9453 77.6953V77.8594C80.9453 78.474 80.8724 79.0443 80.7266 79.5703C80.5859 80.0911 80.375 80.5469 80.0938 80.9375C79.8177 81.3229 79.4766 81.6224 79.0703 81.8359C78.6641 82.0495 78.1953 82.1562 77.6641 82.1562C77.138 82.1562 76.6771 82.0599 76.2812 81.8672C75.8906 81.6693 75.5599 81.3906 75.2891 81.0312C75.0182 80.6719 74.7995 80.25 74.6328 79.7656C74.4714 79.276 74.3568 78.7396 74.2891 78.1562V77.5234C74.3568 76.9036 74.4714 76.3411 74.6328 75.8359C74.7995 75.3307 75.0182 74.8958 75.2891 74.5312C75.5599 74.1667 75.8906 73.8854 76.2812 73.6875C76.6719 73.4896 77.1276 73.3906 77.6484 73.3906C78.1797 73.3906 78.651 73.4948 79.0625 73.7031C79.474 73.9062 79.8203 74.1979 80.1016 74.5781C80.3828 74.9531 80.5938 75.4062 80.7344 75.9375C80.875 76.4635 80.9453 77.0495 80.9453 77.6953ZM79.0625 77.8594V77.6953C79.0625 77.3047 79.026 76.9427 78.9531 76.6094C78.8802 76.2708 78.7656 75.974 78.6094 75.7188C78.4531 75.4635 78.2526 75.2656 78.0078 75.125C77.7682 74.9792 77.4792 74.9062 77.1406 74.9062C76.8073 74.9062 76.5208 74.9635 76.2812 75.0781C76.0417 75.1875 75.8411 75.3411 75.6797 75.5391C75.5182 75.737 75.3932 75.9688 75.3047 76.2344C75.2161 76.4948 75.1536 76.7786 75.1172 77.0859V78.6016C75.1797 78.9766 75.2865 79.3203 75.4375 79.6328C75.5885 79.9453 75.8021 80.1953 76.0781 80.3828C76.3594 80.5651 76.7188 80.6562 77.1562 80.6562C77.4948 80.6562 77.7839 80.5833 78.0234 80.4375C78.263 80.2917 78.4583 80.0911 78.6094 79.8359C78.7656 79.5755 78.8802 79.276 78.9531 78.9375C79.026 78.599 79.0625 78.2396 79.0625 77.8594Z" fill="white"/>
<path d="M21.9217 20.5343C21.8033 17.1348 24.452 14 28.0321 14H64.7175C68.2977 14 70.9463 17.1348 70.8279 20.5343C70.7142 23.7999 70.8619 28.03 71.9265 31.4792C72.9945 34.939 74.7955 37.1259 77.7451 37.4069V40.5931C74.7955 40.8741 72.9945 43.061 71.9265 46.5208C70.8619 49.97 70.7142 54.2001 70.8279 57.4658C70.9463 60.8652 68.2977 64 64.7175 64H28.0321C24.452 64 21.8033 60.8652 21.9218 57.4658C22.0354 54.2001 21.8877 49.97 20.823 46.5208C19.7551 43.061 17.9498 40.8741 15 40.5931V37.4069C17.9496 37.1259 19.7551 34.939 20.823 31.4792C21.8877 28.03 22.0354 23.7999 21.9217 20.5343Z" fill="url(#paint1_linear_2085_1001)"/>
<g filter="url(#filter1_d_2085_1001)">
<path d="M47.7324 52.2913C53.5286 52.2913 57.0214 49.4533 57.0214 44.7723C57.0214 41.2339 54.5292 38.6723 50.8287 38.2667V38.1193C53.5475 37.677 55.6809 35.1523 55.6809 32.3327C55.6809 28.3152 52.5091 25.6981 47.6758 25.6981H36.8008V52.2913H47.7324ZM41.0299 29.0707H46.6563C49.7149 29.0707 51.4518 30.4344 51.4518 32.9039C51.4518 35.5393 49.4317 37.0136 45.7689 37.0136H41.0299V29.0707ZM41.0299 48.9188V40.165H46.6184C50.621 40.165 52.6978 41.6393 52.6978 44.5143C52.6978 47.3892 50.6777 48.9188 46.8639 48.9188H41.0299Z" fill="url(#paint2_linear_2085_1001)"/>
<path d="M47.7324 52.2913C53.5286 52.2913 57.0214 49.4533 57.0214 44.7723C57.0214 41.2339 54.5292 38.6723 50.8287 38.2667V38.1193C53.5475 37.677 55.6809 35.1523 55.6809 32.3327C55.6809 28.3152 52.5091 25.6981 47.6758 25.6981H36.8008V52.2913H47.7324ZM41.0299 29.0707H46.6563C49.7149 29.0707 51.4518 30.4344 51.4518 32.9039C51.4518 35.5393 49.4317 37.0136 45.7689 37.0136H41.0299V29.0707ZM41.0299 48.9188V40.165H46.6184C50.621 40.165 52.6978 41.6393 52.6978 44.5143C52.6978 47.3892 50.6777 48.9188 46.8639 48.9188H41.0299Z" stroke="white"/>
</g>
<defs>
<filter id="filter0_d_2085_1001" x="0" y="0" width="101" height="101" filterUnits="userSpaceOnUse" color-interpolation-filters="sRGB">
<feFlood flood-opacity="0" result="BackgroundImageFix"/>
<feColorMatrix in="SourceAlpha" type="matrix" values="0 0 0 0 0 0 0 0 0 0 0 0 0 0 0 0 0 0 127 0" result="hardAlpha"/>
<feOffset dx="4" dy="4"/>
<feGaussianBlur stdDeviation="2"/>
<feComposite in2="hardAlpha" operator="out"/>
<feColorMatrix type="matrix" values="0 0 0 0 0 0 0 0 0 0 0 0 0 0 0 0 0 0 0.25 0"/>
<feBlend mode="normal" in2="BackgroundImageFix" result="effect1_dropShadow_2085_1001"/>
<feBlend mode="normal" in="SourceGraphic" in2="effect1_dropShadow_2085_1001" result="shape"/>
</filter>
<filter id="filter1_d_2085_1001" x="20.3008" y="13.1981" width="53.2207" height="59.5931" filterUnits="userSpaceOnUse" color-interpolation-filters="sRGB">
<feFlood flood-opacity="0" result="BackgroundImageFix"/>
<feColorMatrix in="SourceAlpha" type="matrix" values="0 0 0 0 0 0 0 0 0 0 0 0 0 0 0 0 0 0 127 0" result="hardAlpha"/>
<feOffset dy="4"/>
<feGaussianBlur stdDeviation="8"/>
<feColorMatrix type="matrix" values="0 0 0 0 0 0 0 0 0 0 0 0 0 0 0 0 0 0 0.15 0"/>
<feBlend mode="normal" in2="BackgroundImageFix" result="effect1_dropShadow_2085_1001"/>
<feBlend mode="normal" in="SourceGraphic" in2="effect1_dropShadow_2085_1001" result="shape"/>
</filter>
<linearGradient id="paint0_linear_2085_1001" x1="49" y1="93" x2="49" y2="6.47341e-07" gradientUnits="userSpaceOnUse">
<stop stop-color="#161827"/>
<stop offset="1" stop-color="#460948"/>
</linearGradient>
<linearGradient id="paint1_linear_2085_1001" x1="24.3234" y1="15.3233" x2="79.152" y2="58.8462" gradientUnits="userSpaceOnUse">
<stop stop-color="#9013FE"/>
<stop offset="1" stop-color="#6610F2"/>
</linearGradient>
<linearGradient id="paint2_linear_2085_1001" x1="38.7134" y1="27.4485" x2="50.969" y2="48.1754" gradientUnits="userSpaceOnUse">
<stop stop-color="white"/>
<stop offset="1" stop-color="#F1E5FC"/>
</linearGradient>
</defs>
</svg>
