<svg width="101" height="101" viewBox="0 0 101 101" fill="none" xmlns="http://www.w3.org/2000/svg">
<g filter="url(#filter0_d_2085_1006)">
<rect width="93" height="93" rx="8" fill="url(#paint0_linear_2085_1006)"/>
</g>
<path d="M44.3203 78.2969H46.2734C46.2109 79.0417 46.0026 79.7057 45.6484 80.2891C45.2943 80.8672 44.7969 81.3229 44.1562 81.6562C43.5156 81.9896 42.737 82.1562 41.8203 82.1562C41.1172 82.1562 40.4844 82.0312 39.9219 81.7812C39.3594 81.526 38.8776 81.1667 38.4766 80.7031C38.0755 80.2344 37.7682 79.6693 37.5547 79.0078C37.3464 78.3464 37.2422 77.6068 37.2422 76.7891V75.8438C37.2422 75.026 37.349 74.2865 37.5625 73.625C37.7812 72.9635 38.0938 72.3984 38.5 71.9297C38.9062 71.4557 39.3932 71.0938 39.9609 70.8438C40.5339 70.5938 41.1771 70.4688 41.8906 70.4688C42.7969 70.4688 43.5625 70.6354 44.1875 70.9688C44.8125 71.3021 45.2969 71.763 45.6406 72.3516C45.9896 72.9401 46.2031 73.6146 46.2812 74.375H44.3281C44.276 73.8854 44.1615 73.4661 43.9844 73.1172C43.8125 72.7682 43.5573 72.5026 43.2188 72.3203C42.8802 72.1328 42.4375 72.0391 41.8906 72.0391C41.4427 72.0391 41.0521 72.1224 40.7188 72.2891C40.3854 72.4557 40.1068 72.7005 39.8828 73.0234C39.6589 73.3464 39.4896 73.7448 39.375 74.2188C39.2656 74.6875 39.2109 75.224 39.2109 75.8281V76.7891C39.2109 77.362 39.2604 77.8828 39.3594 78.3516C39.4635 78.8151 39.6198 79.2135 39.8281 79.5469C40.0417 79.8802 40.3125 80.138 40.6406 80.3203C40.9688 80.5026 41.362 80.5938 41.8203 80.5938C42.3776 80.5938 42.8281 80.5052 43.1719 80.3281C43.5208 80.151 43.7839 79.8932 43.9609 79.5547C44.1432 79.2109 44.263 78.7917 44.3203 78.2969ZM48.8047 82L50.8984 70.625H52.1797L50.0859 82H48.8047ZM51.8516 82L53.9453 70.625H55.2266L53.1328 82H51.8516ZM56.2891 75.0859H48.1641V73.875H56.2891V75.0859ZM55.7031 78.7969H47.5703V77.5859H55.7031V78.7969Z" fill="white"/>
<path d="M68.1771 28.5873C68.1767 27.7491 67.9975 27.0083 67.6348 26.3727C67.2787 25.7475 66.7455 25.2236 66.0299 24.8093C60.1248 21.4044 54.2141 18.0098 48.3108 14.6014C46.7193 13.6827 45.1763 13.7162 43.5965 14.6481C41.2462 16.0343 29.4783 22.7763 25.9717 24.8074C24.5275 25.6433 23.8247 26.9227 23.8245 28.5858C23.8223 35.4333 23.8245 42.2806 23.8223 49.1285C23.8225 49.9482 23.9942 50.6746 24.3407 51.3007C24.6971 51.9447 25.2378 52.4831 25.9697 52.9067C29.4766 54.9378 41.246 61.6794 43.5958 63.0659C45.1763 63.9983 46.7193 64.0317 48.3113 63.1126C54.2146 59.704 60.1259 56.3096 66.032 52.9048C66.7638 52.4812 67.3046 51.9425 67.6609 51.2991C68.007 50.6728 68.179 49.9465 68.1794 49.1267C68.1794 49.1267 68.1794 35.435 68.1771 28.5873Z" fill="#9B4993"/>
<path d="M46.0677 38.7903L24.3398 51.3007C24.6962 51.9447 25.2369 52.4831 25.9688 52.9066C29.4757 54.9378 41.2451 61.6794 43.5949 63.0658C45.1754 63.9983 46.7184 64.0316 48.3104 63.1126C54.2138 59.7039 60.125 56.3095 66.0311 52.9047C66.7629 52.4812 67.3037 51.9425 67.66 51.299L46.0677 38.7903Z" fill="#682876"/>
<path d="M39.6328 42.496C40.8972 44.7032 43.274 46.192 46.0005 46.192C48.7439 46.192 51.1342 44.6843 52.3922 42.4535L46.0683 38.7903L39.6328 42.496Z" fill="#682876"/>
<path d="M68.1769 28.5873C68.1764 27.749 67.9972 27.0083 67.6346 26.3727L46.0684 38.7903L67.6607 51.2991C68.0068 50.6728 68.1788 49.9465 68.1792 49.1267C68.1792 49.1267 68.1792 35.435 68.1769 28.5873Z" fill="#823085"/>
<path d="M52.3916 42.4536C51.1337 44.6844 48.7433 46.192 46 46.192C43.2735 46.192 40.8966 44.7033 39.6322 42.496C39.0181 41.4234 38.6649 40.1816 38.6649 38.857C38.6649 34.806 41.949 31.5221 46 31.5221C48.709 31.5221 51.0732 32.9923 52.3438 35.177L58.755 31.4851C56.2067 27.0864 51.4492 24.1268 46 24.1268C37.8644 24.1268 31.2695 30.7218 31.2695 38.857C31.2695 41.5259 31.9795 44.0287 33.2205 46.1875C35.7624 50.6096 40.5336 53.5873 46 53.5873C51.4763 53.5873 56.2551 50.5977 58.7932 46.1625L52.3916 42.4536Z" fill="white"/>
<path d="M59.0371 35.3741H60.4941V42.431H59.0371V35.3741Z" fill="white"/>
<path d="M62.2695 35.3741H63.7263V42.431H62.2695V35.3741Z" fill="white"/>
<path d="M57.8535 36.558H64.9105V38.0148H57.8535V36.558Z" fill="white"/>
<path d="M57.8535 39.7904H64.9105V41.2474H57.8535V39.7904Z" fill="white"/>
<defs>
<filter id="filter0_d_2085_1006" x="0" y="0" width="101" height="101" filterUnits="userSpaceOnUse" color-interpolation-filters="sRGB">
<feFlood flood-opacity="0" result="BackgroundImageFix"/>
<feColorMatrix in="SourceAlpha" type="matrix" values="0 0 0 0 0 0 0 0 0 0 0 0 0 0 0 0 0 0 127 0" result="hardAlpha"/>
<feOffset dx="4" dy="4"/>
<feGaussianBlur stdDeviation="2"/>
<feComposite in2="hardAlpha" operator="out"/>
<feColorMatrix type="matrix" values="0 0 0 0 0 0 0 0 0 0 0 0 0 0 0 0 0 0 0.25 0"/>
<feBlend mode="normal" in2="BackgroundImageFix" result="effect1_dropShadow_2085_1006"/>
<feBlend mode="normal" in="SourceGraphic" in2="effect1_dropShadow_2085_1006" result="shape"/>
</filter>
<linearGradient id="paint0_linear_2085_1006" x1="49" y1="93" x2="49" y2="6.47341e-07" gradientUnits="userSpaceOnUse">
<stop stop-color="#161827"/>
<stop offset="1" stop-color="#460948"/>
</linearGradient>
</defs>
</svg>
