<svg width="101" height="101" viewBox="0 0 101 101" fill="none" xmlns="http://www.w3.org/2000/svg">
<g filter="url(#filter0_d_2085_998)">
<rect width="93" height="93" rx="8" fill="url(#paint0_linear_2085_998)"/>
</g>
<path d="M39.9609 78.2969H41.9141C41.8516 79.0417 41.6432 79.7057 41.2891 80.2891C40.9349 80.8672 40.4375 81.3229 39.7969 81.6562C39.1562 81.9896 38.3776 82.1562 37.4609 82.1562C36.7578 82.1562 36.125 82.0312 35.5625 81.7812C35 81.526 34.5182 81.1667 34.1172 80.7031C33.7161 80.2344 33.4089 79.6693 33.1953 79.0078C32.987 78.3464 32.8828 77.6068 32.8828 76.7891V75.8438C32.8828 75.026 32.9896 74.2865 33.2031 73.625C33.4219 72.9635 33.7344 72.3984 34.1406 71.9297C34.5469 71.4557 35.0339 71.0938 35.6016 70.8438C36.1745 70.5938 36.8177 70.4688 37.5312 70.4688C38.4375 70.4688 39.2031 70.6354 39.8281 70.9688C40.4531 71.3021 40.9375 71.763 41.2812 72.3516C41.6302 72.9401 41.8438 73.6146 41.9219 74.375H39.9688C39.9167 73.8854 39.8021 73.4661 39.625 73.1172C39.4531 72.7682 39.1979 72.5026 38.8594 72.3203C38.5208 72.1328 38.0781 72.0391 37.5312 72.0391C37.0833 72.0391 36.6927 72.1224 36.3594 72.2891C36.026 72.4557 35.7474 72.7005 35.5234 73.0234C35.2995 73.3464 35.1302 73.7448 35.0156 74.2188C34.9062 74.6875 34.8516 75.224 34.8516 75.8281V76.7891C34.8516 77.362 34.901 77.8828 35 78.3516C35.1042 78.8151 35.2604 79.2135 35.4688 79.5469C35.6823 79.8802 35.9531 80.138 36.2812 80.3203C36.6094 80.5026 37.0026 80.5938 37.4609 80.5938C38.0182 80.5938 38.4688 80.5052 38.8125 80.3281C39.1615 80.151 39.4245 79.8932 39.6016 79.5547C39.7839 79.2109 39.9036 78.7917 39.9609 78.2969ZM49.6797 79.0703C49.6797 78.8359 49.6432 78.6276 49.5703 78.4453C49.5026 78.263 49.3802 78.0964 49.2031 77.9453C49.026 77.7943 48.776 77.6484 48.4531 77.5078C48.1354 77.362 47.7292 77.2135 47.2344 77.0625C46.6927 76.8958 46.1927 76.7109 45.7344 76.5078C45.2812 76.2995 44.8854 76.0599 44.5469 75.7891C44.2083 75.513 43.9453 75.1979 43.7578 74.8438C43.5703 74.4844 43.4766 74.0703 43.4766 73.6016C43.4766 73.138 43.5729 72.7161 43.7656 72.3359C43.9635 71.9557 44.2422 71.6276 44.6016 71.3516C44.9661 71.0703 45.3958 70.8542 45.8906 70.7031C46.3854 70.5469 46.9323 70.4688 47.5312 70.4688C48.375 70.4688 49.1016 70.625 49.7109 70.9375C50.3255 71.25 50.7969 71.6693 51.125 72.1953C51.4583 72.7214 51.625 73.3021 51.625 73.9375H49.6797C49.6797 73.5625 49.599 73.2318 49.4375 72.9453C49.2812 72.6536 49.0417 72.4245 48.7188 72.2578C48.401 72.0911 47.9974 72.0078 47.5078 72.0078C47.0443 72.0078 46.6589 72.0781 46.3516 72.2188C46.0443 72.3594 45.8151 72.5495 45.6641 72.7891C45.513 73.0286 45.4375 73.2995 45.4375 73.6016C45.4375 73.8151 45.487 74.0104 45.5859 74.1875C45.6849 74.3594 45.8359 74.5208 46.0391 74.6719C46.2422 74.8177 46.4974 74.9557 46.8047 75.0859C47.112 75.2161 47.474 75.3411 47.8906 75.4609C48.5208 75.6484 49.0703 75.8568 49.5391 76.0859C50.0078 76.3099 50.3984 76.5651 50.7109 76.8516C51.0234 77.138 51.2578 77.4635 51.4141 77.8281C51.5703 78.1875 51.6484 78.5964 51.6484 79.0547C51.6484 79.5339 51.5521 79.9661 51.3594 80.3516C51.1667 80.7318 50.8906 81.0573 50.5312 81.3281C50.1771 81.5938 49.75 81.7995 49.25 81.9453C48.7552 82.0859 48.2031 82.1562 47.5938 82.1562C47.0469 82.1562 46.5078 82.0833 45.9766 81.9375C45.4505 81.7917 44.9714 81.5703 44.5391 81.2734C44.1068 80.9714 43.763 80.5964 43.5078 80.1484C43.2526 79.6953 43.125 79.1667 43.125 78.5625H45.0859C45.0859 78.9323 45.1484 79.2474 45.2734 79.5078C45.4036 79.7682 45.5833 79.9818 45.8125 80.1484C46.0417 80.3099 46.3073 80.4297 46.6094 80.5078C46.9167 80.5859 47.2448 80.625 47.5938 80.625C48.0521 80.625 48.4349 80.5599 48.7422 80.4297C49.0547 80.2995 49.2891 80.1172 49.4453 79.8828C49.6016 79.6484 49.6797 79.3776 49.6797 79.0703ZM59.3672 79.0703C59.3672 78.8359 59.3307 78.6276 59.2578 78.4453C59.1901 78.263 59.0677 78.0964 58.8906 77.9453C58.7135 77.7943 58.4635 77.6484 58.1406 77.5078C57.8229 77.362 57.4167 77.2135 56.9219 77.0625C56.3802 76.8958 55.8802 76.7109 55.4219 76.5078C54.9688 76.2995 54.5729 76.0599 54.2344 75.7891C53.8958 75.513 53.6328 75.1979 53.4453 74.8438C53.2578 74.4844 53.1641 74.0703 53.1641 73.6016C53.1641 73.138 53.2604 72.7161 53.4531 72.3359C53.651 71.9557 53.9297 71.6276 54.2891 71.3516C54.6536 71.0703 55.0833 70.8542 55.5781 70.7031C56.0729 70.5469 56.6198 70.4688 57.2188 70.4688C58.0625 70.4688 58.7891 70.625 59.3984 70.9375C60.013 71.25 60.4844 71.6693 60.8125 72.1953C61.1458 72.7214 61.3125 73.3021 61.3125 73.9375H59.3672C59.3672 73.5625 59.2865 73.2318 59.125 72.9453C58.9688 72.6536 58.7292 72.4245 58.4062 72.2578C58.0885 72.0911 57.6849 72.0078 57.1953 72.0078C56.7318 72.0078 56.3464 72.0781 56.0391 72.2188C55.7318 72.3594 55.5026 72.5495 55.3516 72.7891C55.2005 73.0286 55.125 73.2995 55.125 73.6016C55.125 73.8151 55.1745 74.0104 55.2734 74.1875C55.3724 74.3594 55.5234 74.5208 55.7266 74.6719C55.9297 74.8177 56.1849 74.9557 56.4922 75.0859C56.7995 75.2161 57.1615 75.3411 57.5781 75.4609C58.2083 75.6484 58.7578 75.8568 59.2266 76.0859C59.6953 76.3099 60.0859 76.5651 60.3984 76.8516C60.7109 77.138 60.9453 77.4635 61.1016 77.8281C61.2578 78.1875 61.3359 78.5964 61.3359 79.0547C61.3359 79.5339 61.2396 79.9661 61.0469 80.3516C60.8542 80.7318 60.5781 81.0573 60.2188 81.3281C59.8646 81.5938 59.4375 81.7995 58.9375 81.9453C58.4427 82.0859 57.8906 82.1562 57.2812 82.1562C56.7344 82.1562 56.1953 82.0833 55.6641 81.9375C55.138 81.7917 54.6589 81.5703 54.2266 81.2734C53.7943 80.9714 53.4505 80.5964 53.1953 80.1484C52.9401 79.6953 52.8125 79.1667 52.8125 78.5625H54.7734C54.7734 78.9323 54.8359 79.2474 54.9609 79.5078C55.0911 79.7682 55.2708 79.9818 55.5 80.1484C55.7292 80.3099 55.9948 80.4297 56.2969 80.5078C56.6042 80.5859 56.9323 80.625 57.2812 80.625C57.7396 80.625 58.1224 80.5599 58.4297 80.4297C58.7422 80.2995 58.9766 80.1172 59.1328 79.8828C59.2891 79.6484 59.3672 79.3776 59.3672 79.0703Z" fill="white"/>
<path d="M69.0563 14L65.0398 58.9948L46.9855 64L28.981 59.0018L24.9688 14H69.0563Z" fill="#264DE4"/>
<path d="M47.0117 60.1742L61.6004 56.1297L65.0328 17.6796H47.0117V60.1742Z" fill="#2965F1"/>
<path d="M47.0118 34.3701H34.166L34.6607 39.8893H47.0118V34.3701Z" fill="#EBEBEB"/>
<path d="M47.0116 23.199H46.9926H33.1719L33.6736 28.7183H47.0116V23.199Z" fill="#EBEBEB"/>
<path d="M34.9082 42.6491L35.6815 51.3152L46.9873 54.4538L47.0127 54.4467V48.7043L46.9885 48.7108L40.8417 47.051L40.4487 42.6491H37.4618H34.9082Z" fill="#EBEBEB"/>
<path d="M53.7905 39.8894L53.1499 47.0475L46.9941 48.709V54.4511L58.309 51.3152L58.392 50.3827L59.689 35.8522L59.8237 34.3702L60.8201 23.199H46.9941V28.7183H54.7714L54.2692 34.3702H46.9941V39.8894H53.7905Z" fill="white"/>
<defs>
<filter id="filter0_d_2085_998" x="0" y="0" width="101" height="101" filterUnits="userSpaceOnUse" color-interpolation-filters="sRGB">
<feFlood flood-opacity="0" result="BackgroundImageFix"/>
<feColorMatrix in="SourceAlpha" type="matrix" values="0 0 0 0 0 0 0 0 0 0 0 0 0 0 0 0 0 0 127 0" result="hardAlpha"/>
<feOffset dx="4" dy="4"/>
<feGaussianBlur stdDeviation="2"/>
<feComposite in2="hardAlpha" operator="out"/>
<feColorMatrix type="matrix" values="0 0 0 0 0 0 0 0 0 0 0 0 0 0 0 0 0 0 0.25 0"/>
<feBlend mode="normal" in2="BackgroundImageFix" result="effect1_dropShadow_2085_998"/>
<feBlend mode="normal" in="SourceGraphic" in2="effect1_dropShadow_2085_998" result="shape"/>
</filter>
<linearGradient id="paint0_linear_2085_998" x1="49" y1="93" x2="49" y2="6.47341e-07" gradientUnits="userSpaceOnUse">
<stop stop-color="#161827"/>
<stop offset="1" stop-color="#460948"/>
</linearGradient>
</defs>
</svg>
