<svg width="101" height="101" viewBox="0 0 101 101" fill="none" xmlns="http://www.w3.org/2000/svg">
<g filter="url(#filter0_d_2085_1011)">
<rect width="93" height="93" rx="8" fill="url(#paint0_linear_2085_1011)"/>
</g>
<path d="M27.3516 70.625V82H25.3906V70.625H27.3516ZM31.9922 75.6016V77.1562H26.8516V75.6016H31.9922ZM32.6406 70.625V72.1875H26.8516V70.625H32.6406ZM36.0312 73.5469V82H34.1406V73.5469H36.0312ZM34.0156 71.3281C34.0156 71.0417 34.1094 70.8047 34.2969 70.6172C34.4896 70.4245 34.7552 70.3281 35.0938 70.3281C35.4271 70.3281 35.6901 70.4245 35.8828 70.6172C36.0755 70.8047 36.1719 71.0417 36.1719 71.3281C36.1719 71.6094 36.0755 71.8438 35.8828 72.0312C35.6901 72.2188 35.4271 72.3125 35.0938 72.3125C34.7552 72.3125 34.4896 72.2188 34.2969 72.0312C34.1094 71.8438 34.0156 71.6094 34.0156 71.3281ZM43.5078 73.5469H45.2188V81.7656C45.2188 82.526 45.0573 83.1719 44.7344 83.7031C44.4115 84.2344 43.9609 84.638 43.3828 84.9141C42.8047 85.1953 42.1354 85.3359 41.375 85.3359C41.0521 85.3359 40.6927 85.2891 40.2969 85.1953C39.9062 85.1016 39.526 84.9505 39.1562 84.7422C38.7917 84.5391 38.487 84.2708 38.2422 83.9375L39.125 82.8281C39.4271 83.1875 39.7604 83.4505 40.125 83.6172C40.4896 83.7839 40.8724 83.8672 41.2734 83.8672C41.7057 83.8672 42.0729 83.7865 42.375 83.625C42.6823 83.4688 42.9193 83.237 43.0859 82.9297C43.2526 82.6224 43.3359 82.2474 43.3359 81.8047V75.4609L43.5078 73.5469ZM37.7656 77.8672V77.7031C37.7656 77.0625 37.8438 76.4792 38 75.9531C38.1562 75.4219 38.3802 74.9661 38.6719 74.5859C38.9635 74.2005 39.3177 73.9062 39.7344 73.7031C40.151 73.4948 40.6224 73.3906 41.1484 73.3906C41.6953 73.3906 42.1615 73.4896 42.5469 73.6875C42.9375 73.8854 43.263 74.1693 43.5234 74.5391C43.7839 74.9036 43.987 75.3411 44.1328 75.8516C44.2839 76.3568 44.3958 76.9193 44.4688 77.5391V78.0625C44.401 78.6667 44.2865 79.2188 44.125 79.7188C43.9635 80.2188 43.75 80.651 43.4844 81.0156C43.2188 81.3802 42.8906 81.6615 42.5 81.8594C42.1146 82.0573 41.6589 82.1562 41.1328 82.1562C40.6172 82.1562 40.151 82.0495 39.7344 81.8359C39.3229 81.6224 38.9688 81.3229 38.6719 80.9375C38.3802 80.5521 38.1562 80.099 38 79.5781C37.8438 79.0521 37.7656 78.4818 37.7656 77.8672ZM39.6484 77.7031V77.8672C39.6484 78.2526 39.6849 78.612 39.7578 78.9453C39.8359 79.2786 39.9531 79.5729 40.1094 79.8281C40.2708 80.0781 40.474 80.276 40.7188 80.4219C40.9688 80.5625 41.263 80.6328 41.6016 80.6328C42.0443 80.6328 42.4062 80.5391 42.6875 80.3516C42.974 80.1641 43.1927 79.9115 43.3438 79.5938C43.5 79.2708 43.6094 78.9115 43.6719 78.5156V77.1016C43.6406 76.7943 43.5755 76.5078 43.4766 76.2422C43.3828 75.9766 43.2552 75.7448 43.0938 75.5469C42.9323 75.3438 42.7292 75.1875 42.4844 75.0781C42.2396 74.9635 41.9505 74.9062 41.6172 74.9062C41.2786 74.9062 40.9844 74.9792 40.7344 75.125C40.4844 75.2708 40.2786 75.4714 40.1172 75.7266C39.9609 75.9818 39.8438 76.2786 39.7656 76.6172C39.6875 76.9557 39.6484 77.3177 39.6484 77.7031ZM49.0547 75.2656V82H47.1719V73.5469H48.9453L49.0547 75.2656ZM48.75 77.4609L48.1094 77.4531C48.1094 76.8698 48.1823 76.3307 48.3281 75.8359C48.474 75.3411 48.6875 74.9115 48.9688 74.5469C49.25 74.1771 49.599 73.8932 50.0156 73.6953C50.4375 73.4922 50.9245 73.3906 51.4766 73.3906C51.862 73.3906 52.2135 73.4479 52.5312 73.5625C52.8542 73.6719 53.1328 73.8464 53.3672 74.0859C53.6068 74.3255 53.7891 74.6328 53.9141 75.0078C54.0443 75.3828 54.1094 75.8359 54.1094 76.3672V82H52.2266V76.5312C52.2266 76.1198 52.1641 75.7969 52.0391 75.5625C51.9193 75.3281 51.7448 75.1615 51.5156 75.0625C51.2917 74.9583 51.0234 74.9062 50.7109 74.9062C50.3568 74.9062 50.0547 74.974 49.8047 75.1094C49.5599 75.2448 49.3594 75.4297 49.2031 75.6641C49.0469 75.8984 48.9323 76.1693 48.8594 76.4766C48.7865 76.7839 48.75 77.112 48.75 77.4609ZM53.9922 76.9609L53.1094 77.1562C53.1094 76.6458 53.1797 76.1641 53.3203 75.7109C53.4661 75.2526 53.6771 74.8516 53.9531 74.5078C54.2344 74.1589 54.5807 73.8854 54.9922 73.6875C55.4036 73.4896 55.875 73.3906 56.4062 73.3906C56.8385 73.3906 57.224 73.4505 57.5625 73.5703C57.9062 73.6849 58.1979 73.8672 58.4375 74.1172C58.6771 74.3672 58.8594 74.6927 58.9844 75.0938C59.1094 75.4896 59.1719 75.9688 59.1719 76.5312V82H57.2812V76.5234C57.2812 76.0964 57.2188 75.7656 57.0938 75.5312C56.974 75.2969 56.8021 75.1354 56.5781 75.0469C56.3542 74.9531 56.0859 74.9062 55.7734 74.9062C55.4818 74.9062 55.224 74.9609 55 75.0703C54.7812 75.1745 54.5964 75.3229 54.4453 75.5156C54.2943 75.7031 54.1797 75.9193 54.1016 76.1641C54.0286 76.4089 53.9922 76.6745 53.9922 76.9609ZM65.875 80.3047V76.2734C65.875 75.9714 65.8203 75.7109 65.7109 75.4922C65.6016 75.2734 65.4349 75.1042 65.2109 74.9844C64.9922 74.8646 64.7161 74.8047 64.3828 74.8047C64.0755 74.8047 63.8099 74.8568 63.5859 74.9609C63.362 75.0651 63.1875 75.2057 63.0625 75.3828C62.9375 75.5599 62.875 75.7604 62.875 75.9844H61C61 75.651 61.0807 75.3281 61.2422 75.0156C61.4036 74.7031 61.638 74.4245 61.9453 74.1797C62.2526 73.9349 62.6198 73.7422 63.0469 73.6016C63.474 73.4609 63.9531 73.3906 64.4844 73.3906C65.1198 73.3906 65.6823 73.4974 66.1719 73.7109C66.6667 73.9245 67.0547 74.2474 67.3359 74.6797C67.6224 75.1068 67.7656 75.6432 67.7656 76.2891V80.0469C67.7656 80.4323 67.7917 80.7786 67.8438 81.0859C67.901 81.388 67.9818 81.651 68.0859 81.875V82H66.1562C66.0677 81.7969 65.9974 81.5391 65.9453 81.2266C65.8984 80.9089 65.875 80.6016 65.875 80.3047ZM66.1484 76.8594L66.1641 78.0234H64.8125C64.4635 78.0234 64.1562 78.0573 63.8906 78.125C63.625 78.1875 63.4036 78.2812 63.2266 78.4062C63.0495 78.5312 62.9167 78.6823 62.8281 78.8594C62.7396 79.0365 62.6953 79.237 62.6953 79.4609C62.6953 79.6849 62.7474 79.8906 62.8516 80.0781C62.9557 80.2604 63.1068 80.4036 63.3047 80.5078C63.5078 80.612 63.7526 80.6641 64.0391 80.6641C64.4245 80.6641 64.7604 80.5859 65.0469 80.4297C65.3385 80.2682 65.5677 80.0729 65.7344 79.8438C65.901 79.6094 65.9896 79.388 66 79.1797L66.6094 80.0156C66.5469 80.2292 66.4401 80.4583 66.2891 80.7031C66.138 80.9479 65.9401 81.1823 65.6953 81.4062C65.4557 81.625 65.1667 81.8047 64.8281 81.9453C64.4948 82.0859 64.1094 82.1562 63.6719 82.1562C63.1198 82.1562 62.6276 82.0469 62.1953 81.8281C61.763 81.6042 61.4245 81.3047 61.1797 80.9297C60.9349 80.5495 60.8125 80.1198 60.8125 79.6406C60.8125 79.1927 60.8958 78.7969 61.0625 78.4531C61.2344 78.1042 61.4844 77.8125 61.8125 77.5781C62.1458 77.3438 62.5521 77.1667 63.0312 77.0469C63.5104 76.9219 64.0573 76.8594 64.6719 76.8594H66.1484Z" fill="white"/>
<path d="M72 14H22V64H72V14Z" fill="#1E1E1E"/>
<mask id="mask0_2085_1011" style="mask-type:luminance" maskUnits="userSpaceOnUse" x="36" y="23" width="22" height="33">
<path d="M57.5564 23.4443H36.4453V55.111H57.5564V23.4443Z" fill="white"/>
</mask>
<g mask="url(#mask0_2085_1011)">
<path d="M47 39.2777C47 37.8779 47.5561 36.5355 48.5458 35.5457C49.5356 34.5559 50.878 33.9999 52.2778 33.9999C53.6776 33.9999 55.0199 34.5559 56.0097 35.5457C56.9995 36.5355 57.5556 37.8779 57.5556 39.2777C57.5556 40.6774 56.9995 42.0198 56.0097 43.0096C55.0199 43.9994 53.6776 44.5554 52.2778 44.5554C50.878 44.5554 49.5356 43.9994 48.5458 43.0096C47.5561 42.0198 47 40.6774 47 39.2777Z" fill="#1ABCFE"/>
<path d="M36.4453 49.8332C36.4453 48.4334 37.0014 47.091 37.9911 46.1013C38.9809 45.1115 40.3233 44.5554 41.7231 44.5554H47.0009V49.8332C47.0009 51.233 46.4448 52.5754 45.455 53.5651C44.4653 54.5549 43.1229 55.111 41.7231 55.111C40.3233 55.111 38.9809 54.5549 37.9911 53.5651C37.0014 52.5754 36.4453 51.233 36.4453 49.8332Z" fill="#0ACF83"/>
<path d="M47 23.4443V33.9999H52.2778C53.6776 33.9999 55.0199 33.4438 56.0097 32.4541C56.9995 31.4643 57.5556 30.1219 57.5556 28.7221C57.5556 27.3223 56.9995 25.9799 56.0097 24.9902C55.0199 24.0004 53.6776 23.4443 52.2778 23.4443H47Z" fill="#FF7262"/>
<path d="M36.4453 28.7221C36.4453 30.1219 37.0014 31.4643 37.9911 32.4541C38.9809 33.4438 40.3233 33.9999 41.7231 33.9999H47.0009V23.4443H41.7231C40.3233 23.4443 38.9809 24.0004 37.9911 24.9902C37.0014 25.9799 36.4453 27.3223 36.4453 28.7221Z" fill="#F24E1E"/>
<path d="M36.4453 39.2777C36.4453 40.6774 37.0014 42.0198 37.9911 43.0096C38.9809 43.9994 40.3233 44.5554 41.7231 44.5554H47.0009V33.9999H41.7231C40.3233 33.9999 38.9809 34.5559 37.9911 35.5457C37.0014 36.5355 36.4453 37.8779 36.4453 39.2777Z" fill="#A259FF"/>
</g>
<defs>
<filter id="filter0_d_2085_1011" x="0" y="0" width="101" height="101" filterUnits="userSpaceOnUse" color-interpolation-filters="sRGB">
<feFlood flood-opacity="0" result="BackgroundImageFix"/>
<feColorMatrix in="SourceAlpha" type="matrix" values="0 0 0 0 0 0 0 0 0 0 0 0 0 0 0 0 0 0 127 0" result="hardAlpha"/>
<feOffset dx="4" dy="4"/>
<feGaussianBlur stdDeviation="2"/>
<feComposite in2="hardAlpha" operator="out"/>
<feColorMatrix type="matrix" values="0 0 0 0 0 0 0 0 0 0 0 0 0 0 0 0 0 0 0.25 0"/>
<feBlend mode="normal" in2="BackgroundImageFix" result="effect1_dropShadow_2085_1011"/>
<feBlend mode="normal" in="SourceGraphic" in2="effect1_dropShadow_2085_1011" result="shape"/>
</filter>
<linearGradient id="paint0_linear_2085_1011" x1="49" y1="93" x2="49" y2="6.47341e-07" gradientUnits="userSpaceOnUse">
<stop stop-color="#161827"/>
<stop offset="1" stop-color="#460948"/>
</linearGradient>
</defs>
</svg>
