<svg width="101" height="101" viewBox="0 0 101 101" fill="none" xmlns="http://www.w3.org/2000/svg">
<g filter="url(#filter0_d_2085_1004)">
<rect width="93" height="93" rx="8" fill="url(#paint0_linear_2085_1004)"/>
</g>
<path d="M31.1094 76.1875V80.5312C30.9479 80.7448 30.6953 80.9792 30.3516 81.2344C30.013 81.4844 29.5625 81.7005 29 81.8828C28.4375 82.0651 27.737 82.1562 26.8984 82.1562C26.1849 82.1562 25.5312 82.0365 24.9375 81.7969C24.3438 81.5521 23.8307 81.1953 23.3984 80.7266C22.9714 80.2578 22.6406 79.6875 22.4062 79.0156C22.1719 78.3385 22.0547 77.5677 22.0547 76.7031V75.9141C22.0547 75.0547 22.1615 74.2891 22.375 73.6172C22.5938 72.9401 22.9062 72.3672 23.3125 71.8984C23.7188 71.4297 24.2083 71.0755 24.7812 70.8359C25.3594 70.5911 26.013 70.4688 26.7422 70.4688C27.6745 70.4688 28.4453 70.625 29.0547 70.9375C29.6693 71.2448 30.1432 71.6719 30.4766 72.2188C30.8099 72.7656 31.0208 73.3906 31.1094 74.0938H29.1875C29.125 73.6979 29.0026 73.3438 28.8203 73.0312C28.6432 72.7188 28.388 72.474 28.0547 72.2969C27.7266 72.1146 27.2995 72.0234 26.7734 72.0234C26.3203 72.0234 25.9219 72.1094 25.5781 72.2812C25.2344 72.4531 24.9479 72.7057 24.7188 73.0391C24.4948 73.3724 24.3255 73.7786 24.2109 74.2578C24.0964 74.737 24.0391 75.2839 24.0391 75.8984V76.7031C24.0391 77.3281 24.1042 77.8828 24.2344 78.3672C24.3698 78.8516 24.5625 79.2604 24.8125 79.5938C25.0677 79.9271 25.3776 80.1797 25.7422 80.3516C26.1068 80.5182 26.5182 80.6016 26.9766 80.6016C27.4245 80.6016 27.7917 80.5651 28.0781 80.4922C28.3646 80.4141 28.5911 80.3229 28.7578 80.2188C28.9297 80.1094 29.0625 80.0052 29.1562 79.9062V77.6484H26.7891V76.1875H31.1094ZM35.1094 73.5469V82H33.2188V73.5469H35.1094ZM33.0938 71.3281C33.0938 71.0417 33.1875 70.8047 33.375 70.6172C33.5677 70.4245 33.8333 70.3281 34.1719 70.3281C34.5052 70.3281 34.7682 70.4245 34.9609 70.6172C35.1536 70.8047 35.25 71.0417 35.25 71.3281C35.25 71.6094 35.1536 71.8438 34.9609 72.0312C34.7682 72.2188 34.5052 72.3125 34.1719 72.3125C33.8333 72.3125 33.5677 72.2188 33.375 72.0312C33.1875 71.8438 33.0938 71.6094 33.0938 71.3281ZM41.0469 73.5469V74.9219H36.2812V73.5469H41.0469ZM37.6562 71.4766H39.5391V79.6641C39.5391 79.9245 39.5755 80.125 39.6484 80.2656C39.7266 80.401 39.8333 80.4922 39.9688 80.5391C40.1042 80.5859 40.263 80.6094 40.4453 80.6094C40.5755 80.6094 40.7005 80.6016 40.8203 80.5859C40.9401 80.5703 41.0365 80.5547 41.1094 80.5391L41.1172 81.9766C40.9609 82.0234 40.7786 82.0651 40.5703 82.1016C40.3672 82.138 40.1328 82.1562 39.8672 82.1562C39.4349 82.1562 39.0521 82.0807 38.7188 81.9297C38.3854 81.7734 38.125 81.5208 37.9375 81.1719C37.75 80.8229 37.6562 80.3594 37.6562 79.7812V71.4766ZM50.2031 75.375V76.9297H44.1641V75.375H50.2031ZM44.6484 70.625V82H42.6875V70.625H44.6484ZM51.7109 70.625V82H49.7578V70.625H51.7109ZM58.9453 80.0078V73.5469H60.8359V82H59.0547L58.9453 80.0078ZM59.2109 78.25L59.8438 78.2344C59.8438 78.8021 59.7812 79.3255 59.6562 79.8047C59.5312 80.2786 59.3385 80.6927 59.0781 81.0469C58.8177 81.3958 58.4844 81.6693 58.0781 81.8672C57.6719 82.0599 57.1849 82.1562 56.6172 82.1562C56.2057 82.1562 55.8281 82.0964 55.4844 81.9766C55.1406 81.8568 54.8438 81.6719 54.5938 81.4219C54.349 81.1719 54.1589 80.8464 54.0234 80.4453C53.888 80.0443 53.8203 79.5651 53.8203 79.0078V73.5469H55.7031V79.0234C55.7031 79.3307 55.7396 79.5885 55.8125 79.7969C55.8854 80 55.9844 80.1641 56.1094 80.2891C56.2344 80.4141 56.3802 80.5026 56.5469 80.5547C56.7135 80.6068 56.8906 80.6328 57.0781 80.6328C57.6146 80.6328 58.0365 80.5286 58.3438 80.3203C58.6562 80.1068 58.8776 79.8203 59.0078 79.4609C59.1432 79.1016 59.2109 78.6979 59.2109 78.25ZM62.7734 70H64.6562V80.1953L64.4766 82H62.7734V70ZM70.1719 77.6953V77.8594C70.1719 78.4844 70.1016 79.0599 69.9609 79.5859C69.8255 80.1068 69.6172 80.5599 69.3359 80.9453C69.0599 81.3307 68.7161 81.6302 68.3047 81.8438C67.8984 82.0521 67.4271 82.1562 66.8906 82.1562C66.3646 82.1562 65.9062 82.0573 65.5156 81.8594C65.125 81.6615 64.7969 81.3802 64.5312 81.0156C64.2708 80.651 64.0599 80.2161 63.8984 79.7109C63.737 79.2057 63.6224 78.6484 63.5547 78.0391V77.5156C63.6224 76.901 63.737 76.3438 63.8984 75.8438C64.0599 75.3385 64.2708 74.9036 64.5312 74.5391C64.7969 74.1693 65.1224 73.8854 65.5078 73.6875C65.8984 73.4896 66.3542 73.3906 66.875 73.3906C67.4167 73.3906 67.8932 73.4948 68.3047 73.7031C68.7214 73.9115 69.0677 74.2083 69.3438 74.5938C69.6198 74.974 69.8255 75.4271 69.9609 75.9531C70.1016 76.4792 70.1719 77.0599 70.1719 77.6953ZM68.2891 77.8594V77.6953C68.2891 77.3151 68.2578 76.9583 68.1953 76.625C68.1328 76.2865 68.0286 75.9896 67.8828 75.7344C67.7422 75.4792 67.5495 75.2786 67.3047 75.1328C67.0651 74.9818 66.7656 74.9062 66.4062 74.9062C66.0729 74.9062 65.7865 74.9635 65.5469 75.0781C65.3073 75.1927 65.1068 75.349 64.9453 75.5469C64.7839 75.7448 64.6562 75.974 64.5625 76.2344C64.474 76.4948 64.4141 76.776 64.3828 77.0781V78.4922C64.4297 78.8828 64.5286 79.2422 64.6797 79.5703C64.8359 79.8932 65.0547 80.1536 65.3359 80.3516C65.6172 80.5443 65.9792 80.6406 66.4219 80.6406C66.7708 80.6406 67.0651 80.5703 67.3047 80.4297C67.5443 80.2891 67.7344 80.0938 67.875 79.8438C68.0208 79.5885 68.125 79.2917 68.1875 78.9531C68.2552 78.6146 68.2891 78.25 68.2891 77.8594Z" fill="white"/>
<path fill-rule="evenodd" clip-rule="evenodd" d="M46.424 14C32.3652 14 21 25.4583 21 39.6339C21 50.9651 28.2821 60.5568 38.3842 63.9516C39.6473 64.2068 40.1099 63.4 40.1099 62.7214C40.1099 62.1271 40.0683 60.0901 40.0683 57.9677C32.9959 59.4958 31.5232 54.912 31.5232 54.912C30.3866 51.9411 28.7026 51.1776 28.7026 51.1776C26.3878 49.6073 28.8712 49.6073 28.8712 49.6073C31.4389 49.7771 32.7862 52.2385 32.7862 52.2385C35.0588 56.1427 38.7209 55.0396 40.1942 54.3604C40.4045 52.7052 41.0784 51.5594 41.7939 50.9229C36.1532 50.3286 30.2185 48.1219 30.2185 38.2755C30.2185 35.4745 31.2281 33.1828 32.8278 31.4005C32.5754 30.7641 31.6913 28.1323 33.0808 24.6099C33.0808 24.6099 35.2274 23.9307 40.0678 27.2411C42.1401 26.68 44.2772 26.3946 46.424 26.3922C48.5707 26.3922 50.759 26.6896 52.7798 27.2411C57.6206 23.9307 59.7673 24.6099 59.7673 24.6099C61.1568 28.1323 60.2721 30.7641 60.0197 31.4005C61.6616 33.1828 62.6295 35.4745 62.6295 38.2755C62.6295 48.1219 56.6948 50.2859 51.0119 50.9229C51.9383 51.7292 52.7376 53.2568 52.7376 55.676C52.7376 59.1135 52.696 61.8724 52.696 62.7208C52.696 63.4 53.1591 64.2068 54.4217 63.9521C64.5238 60.5562 71.8059 50.9651 71.8059 39.6339C71.8475 25.4583 60.4407 14 46.424 14Z" fill="white"/>
<defs>
<filter id="filter0_d_2085_1004" x="0" y="0" width="101" height="101" filterUnits="userSpaceOnUse" color-interpolation-filters="sRGB">
<feFlood flood-opacity="0" result="BackgroundImageFix"/>
<feColorMatrix in="SourceAlpha" type="matrix" values="0 0 0 0 0 0 0 0 0 0 0 0 0 0 0 0 0 0 127 0" result="hardAlpha"/>
<feOffset dx="4" dy="4"/>
<feGaussianBlur stdDeviation="2"/>
<feComposite in2="hardAlpha" operator="out"/>
<feColorMatrix type="matrix" values="0 0 0 0 0 0 0 0 0 0 0 0 0 0 0 0 0 0 0.25 0"/>
<feBlend mode="normal" in2="BackgroundImageFix" result="effect1_dropShadow_2085_1004"/>
<feBlend mode="normal" in="SourceGraphic" in2="effect1_dropShadow_2085_1004" result="shape"/>
</filter>
<linearGradient id="paint0_linear_2085_1004" x1="49" y1="93" x2="49" y2="6.47341e-07" gradientUnits="userSpaceOnUse">
<stop stop-color="#161827"/>
<stop offset="1" stop-color="#460948"/>
</linearGradient>
</defs>
</svg>
