<svg width="101" height="101" viewBox="0 0 101 101" fill="none" xmlns="http://www.w3.org/2000/svg">
<g filter="url(#filter0_d_2085_999)">
<rect width="93" height="93" rx="8" fill="url(#paint0_linear_2085_999)"/>
</g>
<path d="M15.0938 78.5859V70.625H17.0469V78.5859C17.0469 79.3411 16.8854 79.9844 16.5625 80.5156C16.2396 81.0469 15.7995 81.4531 15.2422 81.7344C14.6849 82.0156 14.0521 82.1562 13.3438 82.1562C12.6198 82.1562 11.9766 82.0339 11.4141 81.7891C10.8568 81.5443 10.4193 81.1693 10.1016 80.6641C9.78385 80.1589 9.625 79.5182 9.625 78.7422H11.5938C11.5938 79.1901 11.6641 79.5521 11.8047 79.8281C11.9505 80.099 12.1536 80.2969 12.4141 80.4219C12.6797 80.5417 12.9896 80.6016 13.3438 80.6016C13.6823 80.6016 13.9818 80.526 14.2422 80.375C14.5078 80.2188 14.7161 79.9922 14.8672 79.6953C15.0182 79.3932 15.0938 79.0234 15.0938 78.5859ZM23.8828 80.3047V76.2734C23.8828 75.9714 23.8281 75.7109 23.7188 75.4922C23.6094 75.2734 23.4427 75.1042 23.2188 74.9844C23 74.8646 22.724 74.8047 22.3906 74.8047C22.0833 74.8047 21.8177 74.8568 21.5938 74.9609C21.3698 75.0651 21.1953 75.2057 21.0703 75.3828C20.9453 75.5599 20.8828 75.7604 20.8828 75.9844H19.0078C19.0078 75.651 19.0885 75.3281 19.25 75.0156C19.4115 74.7031 19.6458 74.4245 19.9531 74.1797C20.2604 73.9349 20.6276 73.7422 21.0547 73.6016C21.4818 73.4609 21.9609 73.3906 22.4922 73.3906C23.1276 73.3906 23.6901 73.4974 24.1797 73.7109C24.6745 73.9245 25.0625 74.2474 25.3438 74.6797C25.6302 75.1068 25.7734 75.6432 25.7734 76.2891V80.0469C25.7734 80.4323 25.7995 80.7786 25.8516 81.0859C25.9089 81.388 25.9896 81.651 26.0938 81.875V82H24.1641C24.0755 81.7969 24.0052 81.5391 23.9531 81.2266C23.9062 80.9089 23.8828 80.6016 23.8828 80.3047ZM24.1562 76.8594L24.1719 78.0234H22.8203C22.4714 78.0234 22.1641 78.0573 21.8984 78.125C21.6328 78.1875 21.4115 78.2812 21.2344 78.4062C21.0573 78.5312 20.9245 78.6823 20.8359 78.8594C20.7474 79.0365 20.7031 79.237 20.7031 79.4609C20.7031 79.6849 20.7552 79.8906 20.8594 80.0781C20.9635 80.2604 21.1146 80.4036 21.3125 80.5078C21.5156 80.612 21.7604 80.6641 22.0469 80.6641C22.4323 80.6641 22.7682 80.5859 23.0547 80.4297C23.3464 80.2682 23.5755 80.0729 23.7422 79.8438C23.9089 79.6094 23.9974 79.388 24.0078 79.1797L24.6172 80.0156C24.5547 80.2292 24.4479 80.4583 24.2969 80.7031C24.1458 80.9479 23.9479 81.1823 23.7031 81.4062C23.4635 81.625 23.1745 81.8047 22.8359 81.9453C22.5026 82.0859 22.1172 82.1562 21.6797 82.1562C21.1276 82.1562 20.6354 82.0469 20.2031 81.8281C19.7708 81.6042 19.4323 81.3047 19.1875 80.9297C18.9427 80.5495 18.8203 80.1198 18.8203 79.6406C18.8203 79.1927 18.9036 78.7969 19.0703 78.4531C19.2422 78.1042 19.4922 77.8125 19.8203 77.5781C20.1536 77.3438 20.5599 77.1667 21.0391 77.0469C21.5182 76.9219 22.0651 76.8594 22.6797 76.8594H24.1562ZM30.3672 80.5078L32.4375 73.5469H34.3906L31.4531 82H30.2344L30.3672 80.5078ZM28.7812 73.5469L30.8906 80.5391L30.9922 82H29.7734L26.8203 73.5469H28.7812ZM40.1953 80.3047V76.2734C40.1953 75.9714 40.1406 75.7109 40.0312 75.4922C39.9219 75.2734 39.7552 75.1042 39.5312 74.9844C39.3125 74.8646 39.0365 74.8047 38.7031 74.8047C38.3958 74.8047 38.1302 74.8568 37.9062 74.9609C37.6823 75.0651 37.5078 75.2057 37.3828 75.3828C37.2578 75.5599 37.1953 75.7604 37.1953 75.9844H35.3203C35.3203 75.651 35.401 75.3281 35.5625 75.0156C35.724 74.7031 35.9583 74.4245 36.2656 74.1797C36.5729 73.9349 36.9401 73.7422 37.3672 73.6016C37.7943 73.4609 38.2734 73.3906 38.8047 73.3906C39.4401 73.3906 40.0026 73.4974 40.4922 73.7109C40.987 73.9245 41.375 74.2474 41.6562 74.6797C41.9427 75.1068 42.0859 75.6432 42.0859 76.2891V80.0469C42.0859 80.4323 42.112 80.7786 42.1641 81.0859C42.2214 81.388 42.3021 81.651 42.4062 81.875V82H40.4766C40.388 81.7969 40.3177 81.5391 40.2656 81.2266C40.2188 80.9089 40.1953 80.6016 40.1953 80.3047ZM40.4688 76.8594L40.4844 78.0234H39.1328C38.7839 78.0234 38.4766 78.0573 38.2109 78.125C37.9453 78.1875 37.724 78.2812 37.5469 78.4062C37.3698 78.5312 37.237 78.6823 37.1484 78.8594C37.0599 79.0365 37.0156 79.237 37.0156 79.4609C37.0156 79.6849 37.0677 79.8906 37.1719 80.0781C37.276 80.2604 37.4271 80.4036 37.625 80.5078C37.8281 80.612 38.0729 80.6641 38.3594 80.6641C38.7448 80.6641 39.0807 80.5859 39.3672 80.4297C39.6589 80.2682 39.888 80.0729 40.0547 79.8438C40.2214 79.6094 40.3099 79.388 40.3203 79.1797L40.9297 80.0156C40.8672 80.2292 40.7604 80.4583 40.6094 80.7031C40.4583 80.9479 40.2604 81.1823 40.0156 81.4062C39.776 81.625 39.487 81.8047 39.1484 81.9453C38.8151 82.0859 38.4297 82.1562 37.9922 82.1562C37.4401 82.1562 36.9479 82.0469 36.5156 81.8281C36.0833 81.6042 35.7448 81.3047 35.5 80.9297C35.2552 80.5495 35.1328 80.1198 35.1328 79.6406C35.1328 79.1927 35.2161 78.7969 35.3828 78.4531C35.5547 78.1042 35.8047 77.8125 36.1328 77.5781C36.4661 77.3438 36.8724 77.1667 37.3516 77.0469C37.8307 76.9219 38.3776 76.8594 38.9922 76.8594H40.4688ZM48.7969 79.7109C48.7969 79.5234 48.75 79.3542 48.6562 79.2031C48.5625 79.0469 48.3828 78.9062 48.1172 78.7812C47.8568 78.6562 47.4714 78.5417 46.9609 78.4375C46.513 78.3385 46.1016 78.2214 45.7266 78.0859C45.3568 77.9453 45.0391 77.776 44.7734 77.5781C44.5078 77.3802 44.3021 77.1458 44.1562 76.875C44.0104 76.6042 43.9375 76.2917 43.9375 75.9375C43.9375 75.5938 44.013 75.2682 44.1641 74.9609C44.3151 74.6536 44.5312 74.3828 44.8125 74.1484C45.0938 73.9141 45.4349 73.7292 45.8359 73.5938C46.2422 73.4583 46.6953 73.3906 47.1953 73.3906C47.9036 73.3906 48.5104 73.5104 49.0156 73.75C49.526 73.9844 49.9167 74.3047 50.1875 74.7109C50.4583 75.112 50.5938 75.5651 50.5938 76.0703H48.7109C48.7109 75.8464 48.6536 75.638 48.5391 75.4453C48.4297 75.2474 48.263 75.0885 48.0391 74.9688C47.8151 74.8438 47.5339 74.7812 47.1953 74.7812C46.8724 74.7812 46.6042 74.8333 46.3906 74.9375C46.1823 75.0365 46.026 75.1667 45.9219 75.3281C45.8229 75.4896 45.7734 75.6667 45.7734 75.8594C45.7734 76 45.7995 76.1276 45.8516 76.2422C45.9089 76.3516 46.0026 76.4531 46.1328 76.5469C46.263 76.6354 46.4401 76.7188 46.6641 76.7969C46.8932 76.875 47.1797 76.9505 47.5234 77.0234C48.1693 77.1589 48.724 77.3333 49.1875 77.5469C49.6562 77.7552 50.0156 78.026 50.2656 78.3594C50.5156 78.6875 50.6406 79.1042 50.6406 79.6094C50.6406 79.9844 50.5599 80.3281 50.3984 80.6406C50.2422 80.9479 50.013 81.2161 49.7109 81.4453C49.4089 81.6693 49.0469 81.8438 48.625 81.9688C48.2083 82.0938 47.7396 82.1562 47.2188 82.1562C46.4531 82.1562 45.8047 82.0208 45.2734 81.75C44.7422 81.474 44.3385 81.1224 44.0625 80.6953C43.7917 80.263 43.6562 79.8151 43.6562 79.3516H45.4766C45.4974 79.7005 45.5938 79.9792 45.7656 80.1875C45.9427 80.3906 46.1615 80.5391 46.4219 80.6328C46.6875 80.7214 46.9609 80.7656 47.2422 80.7656C47.5807 80.7656 47.8646 80.7214 48.0938 80.6328C48.3229 80.5391 48.4974 80.4141 48.6172 80.2578C48.737 80.0964 48.7969 79.9141 48.7969 79.7109ZM55.7422 80.6562C56.0495 80.6562 56.3255 80.5964 56.5703 80.4766C56.8203 80.3516 57.0208 80.1797 57.1719 79.9609C57.3281 79.7422 57.4141 79.4896 57.4297 79.2031H59.2031C59.1927 79.75 59.0312 80.2474 58.7188 80.6953C58.4062 81.1432 57.9922 81.5 57.4766 81.7656C56.9609 82.026 56.3906 82.1562 55.7656 82.1562C55.1198 82.1562 54.5573 82.0469 54.0781 81.8281C53.599 81.6042 53.2005 81.2969 52.8828 80.9062C52.5651 80.5156 52.3255 80.0651 52.1641 79.5547C52.0078 79.0443 51.9297 78.4974 51.9297 77.9141V77.6406C51.9297 77.0573 52.0078 76.5104 52.1641 76C52.3255 75.4844 52.5651 75.0312 52.8828 74.6406C53.2005 74.25 53.599 73.9453 54.0781 73.7266C54.5573 73.5026 55.1172 73.3906 55.7578 73.3906C56.4349 73.3906 57.0286 73.526 57.5391 73.7969C58.0495 74.0625 58.4505 74.4349 58.7422 74.9141C59.0391 75.388 59.1927 75.9401 59.2031 76.5703H57.4297C57.4141 76.2578 57.3359 75.9766 57.1953 75.7266C57.0599 75.4714 56.8672 75.2682 56.6172 75.1172C56.3724 74.9661 56.0781 74.8906 55.7344 74.8906C55.3542 74.8906 55.0391 74.9688 54.7891 75.125C54.5391 75.276 54.3438 75.4844 54.2031 75.75C54.0625 76.0104 53.9609 76.3047 53.8984 76.6328C53.8411 76.9557 53.8125 77.2917 53.8125 77.6406V77.9141C53.8125 78.263 53.8411 78.6016 53.8984 78.9297C53.9557 79.2578 54.0547 79.5521 54.1953 79.8125C54.3411 80.0677 54.5391 80.2734 54.7891 80.4297C55.0391 80.5807 55.3568 80.6562 55.7422 80.6562ZM62.5391 75.1562V82H60.6562V73.5469H62.4531L62.5391 75.1562ZM65.125 73.4922L65.1094 75.2422C64.9948 75.2214 64.8698 75.2057 64.7344 75.1953C64.6042 75.1849 64.474 75.1797 64.3438 75.1797C64.0208 75.1797 63.737 75.2266 63.4922 75.3203C63.2474 75.4089 63.0417 75.5391 62.875 75.7109C62.7135 75.8776 62.5885 76.0807 62.5 76.3203C62.4115 76.5599 62.3594 76.8281 62.3438 77.125L61.9141 77.1562C61.9141 76.625 61.9661 76.1328 62.0703 75.6797C62.1745 75.2266 62.3307 74.8281 62.5391 74.4844C62.7526 74.1406 63.0182 73.8724 63.3359 73.6797C63.6589 73.487 64.0312 73.3906 64.4531 73.3906C64.5677 73.3906 64.6901 73.401 64.8203 73.4219C64.9557 73.4427 65.0573 73.4661 65.125 73.4922ZM68.3203 73.5469V82H66.4297V73.5469H68.3203ZM66.3047 71.3281C66.3047 71.0417 66.3984 70.8047 66.5859 70.6172C66.7786 70.4245 67.0443 70.3281 67.3828 70.3281C67.7161 70.3281 67.9792 70.4245 68.1719 70.6172C68.3646 70.8047 68.4609 71.0417 68.4609 71.3281C68.4609 71.6094 68.3646 71.8438 68.1719 72.0312C67.9792 72.2188 67.7161 72.3125 67.3828 72.3125C67.0443 72.3125 66.7786 72.2188 66.5859 72.0312C66.3984 71.8438 66.3047 71.6094 66.3047 71.3281ZM72.2734 75.1719V85.25H70.3906V73.5469H72.125L72.2734 75.1719ZM77.7812 77.6953V77.8594C77.7812 78.474 77.7083 79.0443 77.5625 79.5703C77.4219 80.0911 77.2109 80.5469 76.9297 80.9375C76.6536 81.3229 76.3125 81.6224 75.9062 81.8359C75.5 82.0495 75.0312 82.1562 74.5 82.1562C73.974 82.1562 73.513 82.0599 73.1172 81.8672C72.7266 81.6693 72.3958 81.3906 72.125 81.0312C71.8542 80.6719 71.6354 80.25 71.4688 79.7656C71.3073 79.276 71.1927 78.7396 71.125 78.1562V77.5234C71.1927 76.9036 71.3073 76.3411 71.4688 75.8359C71.6354 75.3307 71.8542 74.8958 72.125 74.5312C72.3958 74.1667 72.7266 73.8854 73.1172 73.6875C73.5078 73.4896 73.9635 73.3906 74.4844 73.3906C75.0156 73.3906 75.487 73.4948 75.8984 73.7031C76.3099 73.9062 76.6562 74.1979 76.9375 74.5781C77.2188 74.9531 77.4297 75.4062 77.5703 75.9375C77.7109 76.4635 77.7812 77.0495 77.7812 77.6953ZM75.8984 77.8594V77.6953C75.8984 77.3047 75.862 76.9427 75.7891 76.6094C75.7161 76.2708 75.6016 75.974 75.4453 75.7188C75.2891 75.4635 75.0885 75.2656 74.8438 75.125C74.6042 74.9792 74.3151 74.9062 73.9766 74.9062C73.6432 74.9062 73.3568 74.9635 73.1172 75.0781C72.8776 75.1875 72.6771 75.3411 72.5156 75.5391C72.3542 75.737 72.2292 75.9688 72.1406 76.2344C72.0521 76.4948 71.9896 76.7786 71.9531 77.0859V78.6016C72.0156 78.9766 72.1224 79.3203 72.2734 79.6328C72.4245 79.9453 72.638 80.1953 72.9141 80.3828C73.1953 80.5651 73.5547 80.6562 73.9922 80.6562C74.3307 80.6562 74.6198 80.5833 74.8594 80.4375C75.099 80.2917 75.2943 80.0911 75.4453 79.8359C75.6016 79.5755 75.7161 79.276 75.7891 78.9375C75.862 78.599 75.8984 78.2396 75.8984 77.8594ZM83.2578 73.5469V74.9219H78.4922V73.5469H83.2578ZM79.8672 71.4766H81.75V79.6641C81.75 79.9245 81.7865 80.125 81.8594 80.2656C81.9375 80.401 82.0443 80.4922 82.1797 80.5391C82.3151 80.5859 82.474 80.6094 82.6562 80.6094C82.7865 80.6094 82.9115 80.6016 83.0312 80.5859C83.151 80.5703 83.2474 80.5547 83.3203 80.5391L83.3281 81.9766C83.1719 82.0234 82.9896 82.0651 82.7812 82.1016C82.5781 82.138 82.3438 82.1562 82.0781 82.1562C81.6458 82.1562 81.263 82.0807 80.9297 81.9297C80.5964 81.7734 80.3359 81.5208 80.1484 81.1719C79.9609 80.8229 79.8672 80.3594 79.8672 79.7812V71.4766Z" fill="white"/>
<path d="M72 14H22V64H72V14Z" fill="#F7DF1E"/>
<path d="M35.1465 55.7836L38.9729 53.468C39.7111 54.7768 40.3826 55.8841 41.9933 55.8841C43.5373 55.8841 44.5107 55.2802 44.5107 52.931V36.9548H49.2094V52.9974C49.2094 57.8641 46.3567 60.0793 42.1947 60.0793C38.4359 60.0793 36.254 58.1326 35.1465 55.7832" fill="black"/>
<path d="M51.7617 55.2802L55.5876 53.065C56.5948 54.7097 57.9037 55.918 60.2195 55.918C62.1664 55.918 63.4079 54.9446 63.4079 53.602C63.4079 51.991 62.1326 51.4203 59.9844 50.4809L58.81 49.9771C55.42 48.5341 53.1711 46.7217 53.1711 42.8955C53.1711 39.3714 55.8562 36.6862 60.0517 36.6862C63.0388 36.6862 65.1868 37.7268 66.7306 40.4454L63.0721 42.7948C62.2666 41.3517 61.3942 40.7812 60.0517 40.7812C58.6756 40.7812 57.8029 41.6538 57.8029 42.7948C57.8029 44.2045 58.6756 44.7751 60.6892 45.6478L61.8638 46.1512C65.8578 47.863 68.1067 49.6081 68.1067 53.5348C68.1067 57.764 64.7839 60.0797 60.3202 60.0797C55.957 60.0797 53.1376 57.9989 51.7617 55.2802Z" fill="black"/>
<defs>
<filter id="filter0_d_2085_999" x="0" y="0" width="101" height="101" filterUnits="userSpaceOnUse" color-interpolation-filters="sRGB">
<feFlood flood-opacity="0" result="BackgroundImageFix"/>
<feColorMatrix in="SourceAlpha" type="matrix" values="0 0 0 0 0 0 0 0 0 0 0 0 0 0 0 0 0 0 127 0" result="hardAlpha"/>
<feOffset dx="4" dy="4"/>
<feGaussianBlur stdDeviation="2"/>
<feComposite in2="hardAlpha" operator="out"/>
<feColorMatrix type="matrix" values="0 0 0 0 0 0 0 0 0 0 0 0 0 0 0 0 0 0 0.25 0"/>
<feBlend mode="normal" in2="BackgroundImageFix" result="effect1_dropShadow_2085_999"/>
<feBlend mode="normal" in="SourceGraphic" in2="effect1_dropShadow_2085_999" result="shape"/>
</filter>
<linearGradient id="paint0_linear_2085_999" x1="49" y1="93" x2="49" y2="6.47341e-07" gradientUnits="userSpaceOnUse">
<stop stop-color="#161827"/>
<stop offset="1" stop-color="#460948"/>
</linearGradient>
</defs>
</svg>
