<svg width="101" height="101" viewBox="0 0 101 101" fill="none" xmlns="http://www.w3.org/2000/svg">
<g filter="url(#filter0_d_2085_1005)">
<rect width="93" height="93" rx="8" fill="url(#paint0_linear_2085_1005)"/>
</g>
<path d="M33.1875 81.0625C33.1875 80.7708 33.2865 80.526 33.4844 80.3281C33.6823 80.125 33.9505 80.0234 34.2891 80.0234C34.6328 80.0234 34.901 80.125 35.0938 80.3281C35.2917 80.526 35.3906 80.7708 35.3906 81.0625C35.3906 81.3542 35.2917 81.599 35.0938 81.7969C34.901 81.9948 34.6328 82.0938 34.2891 82.0938C33.9505 82.0938 33.6823 81.9948 33.4844 81.7969C33.2865 81.599 33.1875 81.3542 33.1875 81.0625ZM46.7734 70.625V82H44.8125L39.7109 73.8516V82H37.75V70.625H39.7109L44.8281 78.7891V70.625H46.7734ZM52.6484 82.1562C52.0234 82.1562 51.4583 82.0547 50.9531 81.8516C50.4531 81.6432 50.026 81.3542 49.6719 80.9844C49.3229 80.6146 49.0547 80.1797 48.8672 79.6797C48.6797 79.1797 48.5859 78.6406 48.5859 78.0625V77.75C48.5859 77.0885 48.6823 76.4896 48.875 75.9531C49.0677 75.4167 49.3359 74.9583 49.6797 74.5781C50.0234 74.1927 50.4297 73.8984 50.8984 73.6953C51.3672 73.4922 51.875 73.3906 52.4219 73.3906C53.026 73.3906 53.5547 73.4922 54.0078 73.6953C54.4609 73.8984 54.8359 74.1849 55.1328 74.5547C55.4349 74.9193 55.6589 75.3542 55.8047 75.8594C55.9557 76.3646 56.0312 76.9219 56.0312 77.5312V78.3359H49.5V76.9844H54.1719V76.8359C54.1615 76.4974 54.0938 76.1797 53.9688 75.8828C53.849 75.5859 53.6641 75.3464 53.4141 75.1641C53.1641 74.9818 52.8307 74.8906 52.4141 74.8906C52.1016 74.8906 51.8229 74.9583 51.5781 75.0938C51.3385 75.224 51.138 75.4141 50.9766 75.6641C50.8151 75.9141 50.6901 76.2161 50.6016 76.5703C50.5182 76.9193 50.4766 77.3125 50.4766 77.75V78.0625C50.4766 78.4323 50.526 78.776 50.625 79.0938C50.7292 79.4062 50.8802 79.6797 51.0781 79.9141C51.276 80.1484 51.5156 80.3333 51.7969 80.4688C52.0781 80.599 52.3984 80.6641 52.7578 80.6641C53.2109 80.6641 53.6146 80.5729 53.9688 80.3906C54.3229 80.2083 54.6302 79.9505 54.8906 79.6172L55.8828 80.5781C55.7005 80.8438 55.4635 81.099 55.1719 81.3438C54.8802 81.5833 54.5234 81.7786 54.1016 81.9297C53.6849 82.0807 53.2005 82.1562 52.6484 82.1562ZM61.375 73.5469V74.9219H56.6094V73.5469H61.375ZM57.9844 71.4766H59.8672V79.6641C59.8672 79.9245 59.9036 80.125 59.9766 80.2656C60.0547 80.401 60.1615 80.4922 60.2969 80.5391C60.4323 80.5859 60.5911 80.6094 60.7734 80.6094C60.9036 80.6094 61.0286 80.6016 61.1484 80.5859C61.2682 80.5703 61.3646 80.5547 61.4375 80.5391L61.4453 81.9766C61.2891 82.0234 61.1068 82.0651 60.8984 82.1016C60.6953 82.138 60.4609 82.1562 60.1953 82.1562C59.763 82.1562 59.3802 82.0807 59.0469 81.9297C58.7135 81.7734 58.4531 81.5208 58.2656 81.1719C58.0781 80.8229 57.9844 80.3594 57.9844 79.7812V71.4766Z" fill="white"/>
<path d="M72 14H22V64H72V14Z" fill="#512BD4"/>
<path d="M30.9114 45.9445C30.5579 45.9445 30.2574 45.8267 30.0099 45.5911C29.7624 45.3494 29.6387 45.0625 29.6387 44.7303C29.6387 44.3919 29.7624 44.102 30.0099 43.8603C30.2574 43.6186 30.5579 43.4978 30.9114 43.4978C31.2708 43.4978 31.5743 43.6186 31.8218 43.8603C32.0751 44.102 32.2018 44.3919 32.2018 44.7303C32.2018 45.0625 32.0751 45.3494 31.8218 45.5911C31.5743 45.8267 31.2708 45.9445 30.9114 45.9445Z" fill="white"/>
<path d="M45.0445 45.7451H42.7464L36.6922 36.1936C36.539 35.952 36.4122 35.7012 36.3121 35.4414H36.259C36.3062 35.7194 36.3298 36.3145 36.3298 37.2266V45.7451H34.2969V32.75H36.7451L42.5962 42.0749C42.8437 42.4616 43.0028 42.7274 43.0735 42.8724H43.1088C43.0499 42.5281 43.0204 41.9451 43.0204 41.1234V32.75H45.0445V45.7451Z" fill="white"/>
<path d="M54.943 45.7451H47.8281V32.75H54.6603V34.5806H49.9317V38.2598H54.2891V40.0812H49.9317V43.9236H54.943V45.7451Z" fill="white"/>
<path d="M65.0554 34.5806H61.4139V45.7451H59.3103V34.5806H55.6777V32.75H65.0554V34.5806Z" fill="white"/>
<defs>
<filter id="filter0_d_2085_1005" x="0" y="0" width="101" height="101" filterUnits="userSpaceOnUse" color-interpolation-filters="sRGB">
<feFlood flood-opacity="0" result="BackgroundImageFix"/>
<feColorMatrix in="SourceAlpha" type="matrix" values="0 0 0 0 0 0 0 0 0 0 0 0 0 0 0 0 0 0 127 0" result="hardAlpha"/>
<feOffset dx="4" dy="4"/>
<feGaussianBlur stdDeviation="2"/>
<feComposite in2="hardAlpha" operator="out"/>
<feColorMatrix type="matrix" values="0 0 0 0 0 0 0 0 0 0 0 0 0 0 0 0 0 0 0.25 0"/>
<feBlend mode="normal" in2="BackgroundImageFix" result="effect1_dropShadow_2085_1005"/>
<feBlend mode="normal" in="SourceGraphic" in2="effect1_dropShadow_2085_1005" result="shape"/>
</filter>
<linearGradient id="paint0_linear_2085_1005" x1="49" y1="93" x2="49" y2="6.47341e-07" gradientUnits="userSpaceOnUse">
<stop stop-color="#161827"/>
<stop offset="1" stop-color="#460948"/>
</linearGradient>
</defs>
</svg>
