<svg width="101" height="101" viewBox="0 0 101 101" fill="none" xmlns="http://www.w3.org/2000/svg">
<g filter="url(#filter0_d_2085_1000)">
<rect width="93" height="93" rx="8" fill="url(#paint0_linear_2085_1000)"/>
</g>
<path d="M34.3047 79.0703C34.3047 78.8359 34.2682 78.6276 34.1953 78.4453C34.1276 78.263 34.0052 78.0964 33.8281 77.9453C33.651 77.7943 33.401 77.6484 33.0781 77.5078C32.7604 77.362 32.3542 77.2135 31.8594 77.0625C31.3177 76.8958 30.8177 76.7109 30.3594 76.5078C29.9062 76.2995 29.5104 76.0599 29.1719 75.7891C28.8333 75.513 28.5703 75.1979 28.3828 74.8438C28.1953 74.4844 28.1016 74.0703 28.1016 73.6016C28.1016 73.138 28.1979 72.7161 28.3906 72.3359C28.5885 71.9557 28.8672 71.6276 29.2266 71.3516C29.5911 71.0703 30.0208 70.8542 30.5156 70.7031C31.0104 70.5469 31.5573 70.4688 32.1562 70.4688C33 70.4688 33.7266 70.625 34.3359 70.9375C34.9505 71.25 35.4219 71.6693 35.75 72.1953C36.0833 72.7214 36.25 73.3021 36.25 73.9375H34.3047C34.3047 73.5625 34.224 73.2318 34.0625 72.9453C33.9062 72.6536 33.6667 72.4245 33.3438 72.2578C33.026 72.0911 32.6224 72.0078 32.1328 72.0078C31.6693 72.0078 31.2839 72.0781 30.9766 72.2188C30.6693 72.3594 30.4401 72.5495 30.2891 72.7891C30.138 73.0286 30.0625 73.2995 30.0625 73.6016C30.0625 73.8151 30.112 74.0104 30.2109 74.1875C30.3099 74.3594 30.4609 74.5208 30.6641 74.6719C30.8672 74.8177 31.1224 74.9557 31.4297 75.0859C31.737 75.2161 32.099 75.3411 32.5156 75.4609C33.1458 75.6484 33.6953 75.8568 34.1641 76.0859C34.6328 76.3099 35.0234 76.5651 35.3359 76.8516C35.6484 77.138 35.8828 77.4635 36.0391 77.8281C36.1953 78.1875 36.2734 78.5964 36.2734 79.0547C36.2734 79.5339 36.1771 79.9661 35.9844 80.3516C35.7917 80.7318 35.5156 81.0573 35.1562 81.3281C34.8021 81.5938 34.375 81.7995 33.875 81.9453C33.3802 82.0859 32.8281 82.1562 32.2188 82.1562C31.6719 82.1562 31.1328 82.0833 30.6016 81.9375C30.0755 81.7917 29.5964 81.5703 29.1641 81.2734C28.7318 80.9714 28.388 80.5964 28.1328 80.1484C27.8776 79.6953 27.75 79.1667 27.75 78.5625H29.7109C29.7109 78.9323 29.7734 79.2474 29.8984 79.5078C30.0286 79.7682 30.2083 79.9818 30.4375 80.1484C30.6667 80.3099 30.9323 80.4297 31.2344 80.5078C31.5417 80.5859 31.8698 80.625 32.2188 80.625C32.6771 80.625 33.0599 80.5599 33.3672 80.4297C33.6797 80.2995 33.9141 80.1172 34.0703 79.8828C34.2266 79.6484 34.3047 79.3776 34.3047 79.0703ZM42.4375 72.1406L39.0391 82H36.9844L41.2656 70.625H42.5781L42.4375 72.1406ZM45.2812 82L41.875 72.1406L41.7266 70.625H43.0469L47.3438 82H45.2812ZM45.1172 77.7812V79.3359H38.9297V77.7812H45.1172ZM54.6016 79.0703C54.6016 78.8359 54.5651 78.6276 54.4922 78.4453C54.4245 78.263 54.3021 78.0964 54.125 77.9453C53.9479 77.7943 53.6979 77.6484 53.375 77.5078C53.0573 77.362 52.651 77.2135 52.1562 77.0625C51.6146 76.8958 51.1146 76.7109 50.6562 76.5078C50.2031 76.2995 49.8073 76.0599 49.4688 75.7891C49.1302 75.513 48.8672 75.1979 48.6797 74.8438C48.4922 74.4844 48.3984 74.0703 48.3984 73.6016C48.3984 73.138 48.4948 72.7161 48.6875 72.3359C48.8854 71.9557 49.1641 71.6276 49.5234 71.3516C49.888 71.0703 50.3177 70.8542 50.8125 70.7031C51.3073 70.5469 51.8542 70.4688 52.4531 70.4688C53.2969 70.4688 54.0234 70.625 54.6328 70.9375C55.2474 71.25 55.7188 71.6693 56.0469 72.1953C56.3802 72.7214 56.5469 73.3021 56.5469 73.9375H54.6016C54.6016 73.5625 54.5208 73.2318 54.3594 72.9453C54.2031 72.6536 53.9635 72.4245 53.6406 72.2578C53.3229 72.0911 52.9193 72.0078 52.4297 72.0078C51.9661 72.0078 51.5807 72.0781 51.2734 72.2188C50.9661 72.3594 50.737 72.5495 50.5859 72.7891C50.4349 73.0286 50.3594 73.2995 50.3594 73.6016C50.3594 73.8151 50.4089 74.0104 50.5078 74.1875C50.6068 74.3594 50.7578 74.5208 50.9609 74.6719C51.1641 74.8177 51.4193 74.9557 51.7266 75.0859C52.0339 75.2161 52.3958 75.3411 52.8125 75.4609C53.4427 75.6484 53.9922 75.8568 54.4609 76.0859C54.9297 76.3099 55.3203 76.5651 55.6328 76.8516C55.9453 77.138 56.1797 77.4635 56.3359 77.8281C56.4922 78.1875 56.5703 78.5964 56.5703 79.0547C56.5703 79.5339 56.474 79.9661 56.2812 80.3516C56.0885 80.7318 55.8125 81.0573 55.4531 81.3281C55.099 81.5938 54.6719 81.7995 54.1719 81.9453C53.6771 82.0859 53.125 82.1562 52.5156 82.1562C51.9688 82.1562 51.4297 82.0833 50.8984 81.9375C50.3724 81.7917 49.8932 81.5703 49.4609 81.2734C49.0286 80.9714 48.6849 80.5964 48.4297 80.1484C48.1745 79.6953 48.0469 79.1667 48.0469 78.5625H50.0078C50.0078 78.9323 50.0703 79.2474 50.1953 79.5078C50.3255 79.7682 50.5052 79.9818 50.7344 80.1484C50.9635 80.3099 51.2292 80.4297 51.5312 80.5078C51.8385 80.5859 52.1667 80.625 52.5156 80.625C52.974 80.625 53.3568 80.5599 53.6641 80.4297C53.9766 80.2995 54.2109 80.1172 54.3672 79.8828C54.5234 79.6484 54.6016 79.3776 54.6016 79.0703ZM64.2891 79.0703C64.2891 78.8359 64.2526 78.6276 64.1797 78.4453C64.112 78.263 63.9896 78.0964 63.8125 77.9453C63.6354 77.7943 63.3854 77.6484 63.0625 77.5078C62.7448 77.362 62.3385 77.2135 61.8438 77.0625C61.3021 76.8958 60.8021 76.7109 60.3438 76.5078C59.8906 76.2995 59.4948 76.0599 59.1562 75.7891C58.8177 75.513 58.5547 75.1979 58.3672 74.8438C58.1797 74.4844 58.0859 74.0703 58.0859 73.6016C58.0859 73.138 58.1823 72.7161 58.375 72.3359C58.5729 71.9557 58.8516 71.6276 59.2109 71.3516C59.5755 71.0703 60.0052 70.8542 60.5 70.7031C60.9948 70.5469 61.5417 70.4688 62.1406 70.4688C62.9844 70.4688 63.7109 70.625 64.3203 70.9375C64.9349 71.25 65.4062 71.6693 65.7344 72.1953C66.0677 72.7214 66.2344 73.3021 66.2344 73.9375H64.2891C64.2891 73.5625 64.2083 73.2318 64.0469 72.9453C63.8906 72.6536 63.651 72.4245 63.3281 72.2578C63.0104 72.0911 62.6068 72.0078 62.1172 72.0078C61.6536 72.0078 61.2682 72.0781 60.9609 72.2188C60.6536 72.3594 60.4245 72.5495 60.2734 72.7891C60.1224 73.0286 60.0469 73.2995 60.0469 73.6016C60.0469 73.8151 60.0964 74.0104 60.1953 74.1875C60.2943 74.3594 60.4453 74.5208 60.6484 74.6719C60.8516 74.8177 61.1068 74.9557 61.4141 75.0859C61.7214 75.2161 62.0833 75.3411 62.5 75.4609C63.1302 75.6484 63.6797 75.8568 64.1484 76.0859C64.6172 76.3099 65.0078 76.5651 65.3203 76.8516C65.6328 77.138 65.8672 77.4635 66.0234 77.8281C66.1797 78.1875 66.2578 78.5964 66.2578 79.0547C66.2578 79.5339 66.1615 79.9661 65.9688 80.3516C65.776 80.7318 65.5 81.0573 65.1406 81.3281C64.7865 81.5938 64.3594 81.7995 63.8594 81.9453C63.3646 82.0859 62.8125 82.1562 62.2031 82.1562C61.6562 82.1562 61.1172 82.0833 60.5859 81.9375C60.0599 81.7917 59.5807 81.5703 59.1484 81.2734C58.7161 80.9714 58.3724 80.5964 58.1172 80.1484C57.862 79.6953 57.7344 79.1667 57.7344 78.5625H59.6953C59.6953 78.9323 59.7578 79.2474 59.8828 79.5078C60.013 79.7682 60.1927 79.9818 60.4219 80.1484C60.651 80.3099 60.9167 80.4297 61.2188 80.5078C61.526 80.5859 61.8542 80.625 62.2031 80.625C62.6615 80.625 63.0443 80.5599 63.3516 80.4297C63.6641 80.2995 63.8984 80.1172 64.0547 79.8828C64.2109 79.6484 64.2891 79.3776 64.2891 79.0703Z" fill="white"/>
<g clip-path="url(#clip0_2085_1000)">
<path fill-rule="evenodd" clip-rule="evenodd" d="M46.9995 14C60.8064 14 71.9989 25.1928 71.9989 38.9995C71.9989 52.8064 60.8064 63.9989 46.9995 63.9989C33.1927 63.9989 22 52.8064 22 38.9995C22 25.1928 33.1927 14 46.9995 14Z" fill="#CD6699"/>
<path d="M42.0319 47.3269C42.3957 48.6723 42.3558 49.927 41.9801 51.0632C41.9384 51.1894 41.8924 51.3142 41.8425 51.4376C41.7926 51.5608 41.7385 51.6826 41.6806 51.8028C41.3909 52.404 41.0021 52.9667 40.5259 53.486C39.0734 55.0707 37.044 55.6699 36.1738 55.165C35.2341 54.6203 35.7048 52.3861 37.3889 50.606C39.2006 48.6907 41.8073 47.4593 41.8073 47.4593L41.8033 47.4515C41.8784 47.4111 41.9547 47.3695 42.0319 47.3269ZM62.6815 24.7002C61.5495 20.2602 54.1875 18.8006 47.2197 21.276C43.0731 22.7492 38.5841 25.0613 35.3564 28.0803C31.5186 31.6699 30.9067 34.7942 31.1588 36.0997C32.0486 40.7061 38.3604 43.7171 40.9551 45.9511V45.9646C40.19 46.3412 34.5902 49.1752 33.2797 52.0724C31.897 55.1288 33.4998 57.3222 34.561 57.6174C37.849 58.5321 41.2229 56.8868 43.0361 54.1822C44.7859 51.5722 44.6403 48.2019 43.8798 46.5254C44.9288 46.2486 46.1516 46.1246 47.7057 46.3062C52.0911 46.8184 52.9516 49.5567 52.787 50.7024C52.6226 51.8484 51.7028 52.4786 51.3953 52.6688C51.0876 52.8591 50.9938 52.9249 51.0197 53.0663C51.057 53.272 51.1993 53.2643 51.4616 53.2199C51.8225 53.159 53.7643 52.2877 53.8473 50.1724C53.9531 47.4867 51.3793 44.4824 46.8222 44.5609C44.9453 44.5933 43.7652 44.7718 42.9127 45.089C42.8497 45.0172 42.7856 44.9458 42.7193 44.8751C39.9019 41.8692 34.6937 39.743 34.9145 35.702C34.9948 34.2329 35.5055 30.3645 44.9222 25.6723C52.6361 21.8285 58.8114 22.8862 59.8787 25.2304C61.4031 28.5795 56.5783 34.8042 48.5673 35.702C45.5152 36.0442 43.9082 34.8612 43.5084 34.4207C43.0875 33.957 43.0248 33.936 42.8677 34.023C42.6117 34.1648 42.7739 34.5743 42.8677 34.8184C43.1068 35.4408 44.0884 36.5447 45.7617 37.0938C47.2337 37.5769 50.8172 37.8423 55.151 36.166C60.0046 34.2884 63.7948 29.0657 62.6815 24.7002Z" fill="white"/>
</g>
<defs>
<filter id="filter0_d_2085_1000" x="0" y="0" width="101" height="101" filterUnits="userSpaceOnUse" color-interpolation-filters="sRGB">
<feFlood flood-opacity="0" result="BackgroundImageFix"/>
<feColorMatrix in="SourceAlpha" type="matrix" values="0 0 0 0 0 0 0 0 0 0 0 0 0 0 0 0 0 0 127 0" result="hardAlpha"/>
<feOffset dx="4" dy="4"/>
<feGaussianBlur stdDeviation="2"/>
<feComposite in2="hardAlpha" operator="out"/>
<feColorMatrix type="matrix" values="0 0 0 0 0 0 0 0 0 0 0 0 0 0 0 0 0 0 0.25 0"/>
<feBlend mode="normal" in2="BackgroundImageFix" result="effect1_dropShadow_2085_1000"/>
<feBlend mode="normal" in="SourceGraphic" in2="effect1_dropShadow_2085_1000" result="shape"/>
</filter>
<linearGradient id="paint0_linear_2085_1000" x1="49" y1="93" x2="49" y2="6.47341e-07" gradientUnits="userSpaceOnUse">
<stop stop-color="#161827"/>
<stop offset="1" stop-color="#460948"/>
</linearGradient>
<clipPath id="clip0_2085_1000">
<rect width="50" height="50" fill="white" transform="translate(22 14)"/>
</clipPath>
</defs>
</svg>
