<svg width="101" height="101" viewBox="0 0 101 101" fill="none" xmlns="http://www.w3.org/2000/svg">
<g filter="url(#filter0_d_2085_1007)">
<rect width="93" height="93" rx="8" fill="url(#paint0_linear_2085_1007)"/>
</g>
<path d="M10.5391 79.0703C10.5391 78.8359 10.5026 78.6276 10.4297 78.4453C10.362 78.263 10.2396 78.0964 10.0625 77.9453C9.88542 77.7943 9.63542 77.6484 9.3125 77.5078C8.99479 77.362 8.58854 77.2135 8.09375 77.0625C7.55208 76.8958 7.05208 76.7109 6.59375 76.5078C6.14062 76.2995 5.74479 76.0599 5.40625 75.7891C5.06771 75.513 4.80469 75.1979 4.61719 74.8438C4.42969 74.4844 4.33594 74.0703 4.33594 73.6016C4.33594 73.138 4.43229 72.7161 4.625 72.3359C4.82292 71.9557 5.10156 71.6276 5.46094 71.3516C5.82552 71.0703 6.25521 70.8542 6.75 70.7031C7.24479 70.5469 7.79167 70.4688 8.39062 70.4688C9.23438 70.4688 9.96094 70.625 10.5703 70.9375C11.1849 71.25 11.6562 71.6693 11.9844 72.1953C12.3177 72.7214 12.4844 73.3021 12.4844 73.9375H10.5391C10.5391 73.5625 10.4583 73.2318 10.2969 72.9453C10.1406 72.6536 9.90104 72.4245 9.57812 72.2578C9.26042 72.0911 8.85677 72.0078 8.36719 72.0078C7.90365 72.0078 7.51823 72.0781 7.21094 72.2188C6.90365 72.3594 6.67448 72.5495 6.52344 72.7891C6.3724 73.0286 6.29688 73.2995 6.29688 73.6016C6.29688 73.8151 6.34635 74.0104 6.44531 74.1875C6.54427 74.3594 6.69531 74.5208 6.89844 74.6719C7.10156 74.8177 7.35677 74.9557 7.66406 75.0859C7.97135 75.2161 8.33333 75.3411 8.75 75.4609C9.38021 75.6484 9.92969 75.8568 10.3984 76.0859C10.8672 76.3099 11.2578 76.5651 11.5703 76.8516C11.8828 77.138 12.1172 77.4635 12.2734 77.8281C12.4297 78.1875 12.5078 78.5964 12.5078 79.0547C12.5078 79.5339 12.4115 79.9661 12.2188 80.3516C12.026 80.7318 11.75 81.0573 11.3906 81.3281C11.0365 81.5938 10.6094 81.7995 10.1094 81.9453C9.61458 82.0859 9.0625 82.1562 8.45312 82.1562C7.90625 82.1562 7.36719 82.0833 6.83594 81.9375C6.3099 81.7917 5.83073 81.5703 5.39844 81.2734C4.96615 80.9714 4.6224 80.5964 4.36719 80.1484C4.11198 79.6953 3.98438 79.1667 3.98438 78.5625H5.94531C5.94531 78.9323 6.00781 79.2474 6.13281 79.5078C6.26302 79.7682 6.44271 79.9818 6.67188 80.1484C6.90104 80.3099 7.16667 80.4297 7.46875 80.5078C7.77604 80.5859 8.10417 80.625 8.45312 80.625C8.91146 80.625 9.29427 80.5599 9.60156 80.4297C9.91406 80.2995 10.1484 80.1172 10.3047 79.8828C10.4609 79.6484 10.5391 79.3776 10.5391 79.0703ZM17.9297 73.5469V74.9219H13.1641V73.5469H17.9297ZM14.5391 71.4766H16.4219V79.6641C16.4219 79.9245 16.4583 80.125 16.5312 80.2656C16.6094 80.401 16.7161 80.4922 16.8516 80.5391C16.987 80.5859 17.1458 80.6094 17.3281 80.6094C17.4583 80.6094 17.5833 80.6016 17.7031 80.5859C17.8229 80.5703 17.9193 80.5547 17.9922 80.5391L18 81.9766C17.8438 82.0234 17.6615 82.0651 17.4531 82.1016C17.25 82.138 17.0156 82.1562 16.75 82.1562C16.3177 82.1562 15.9349 82.0807 15.6016 81.9297C15.2682 81.7734 15.0078 81.5208 14.8203 81.1719C14.6328 80.8229 14.5391 80.3594 14.5391 79.7812V71.4766ZM24.4688 80.0078V73.5469H26.3594V82H24.5781L24.4688 80.0078ZM24.7344 78.25L25.3672 78.2344C25.3672 78.8021 25.3047 79.3255 25.1797 79.8047C25.0547 80.2786 24.862 80.6927 24.6016 81.0469C24.3411 81.3958 24.0078 81.6693 23.6016 81.8672C23.1953 82.0599 22.7083 82.1562 22.1406 82.1562C21.7292 82.1562 21.3516 82.0964 21.0078 81.9766C20.6641 81.8568 20.3672 81.6719 20.1172 81.4219C19.8724 81.1719 19.6823 80.8464 19.5469 80.4453C19.4115 80.0443 19.3438 79.5651 19.3438 79.0078V73.5469H21.2266V79.0234C21.2266 79.3307 21.263 79.5885 21.3359 79.7969C21.4089 80 21.5078 80.1641 21.6328 80.2891C21.7578 80.4141 21.9036 80.5026 22.0703 80.5547C22.237 80.6068 22.4141 80.6328 22.6016 80.6328C23.138 80.6328 23.5599 80.5286 23.8672 80.3203C24.1797 80.1068 24.401 79.8203 24.5312 79.4609C24.6667 79.1016 24.7344 78.6979 24.7344 78.25ZM33.4453 80.25V70H35.3359V82H33.625L33.4453 80.25ZM27.9453 77.8672V77.7031C27.9453 77.0625 28.0208 76.4792 28.1719 75.9531C28.3229 75.4219 28.5417 74.9661 28.8281 74.5859C29.1146 74.2005 29.4635 73.9062 29.875 73.7031C30.2865 73.4948 30.75 73.3906 31.2656 73.3906C31.776 73.3906 32.224 73.4896 32.6094 73.6875C32.9948 73.8854 33.3229 74.1693 33.5938 74.5391C33.8646 74.9036 34.0807 75.3411 34.2422 75.8516C34.4036 76.3568 34.5182 76.9193 34.5859 77.5391V78.0625C34.5182 78.6667 34.4036 79.2188 34.2422 79.7188C34.0807 80.2188 33.8646 80.651 33.5938 81.0156C33.3229 81.3802 32.9922 81.6615 32.6016 81.8594C32.2161 82.0573 31.7656 82.1562 31.25 82.1562C30.7396 82.1562 30.2786 82.0495 29.8672 81.8359C29.4609 81.6224 29.1146 81.3229 28.8281 80.9375C28.5417 80.5521 28.3229 80.099 28.1719 79.5781C28.0208 79.0521 27.9453 78.4818 27.9453 77.8672ZM29.8281 77.7031V77.8672C29.8281 78.2526 29.862 78.612 29.9297 78.9453C30.0026 79.2786 30.1146 79.5729 30.2656 79.8281C30.4167 80.0781 30.612 80.276 30.8516 80.4219C31.0964 80.5625 31.388 80.6328 31.7266 80.6328C32.1536 80.6328 32.5052 80.5391 32.7812 80.3516C33.0573 80.1641 33.2734 79.9115 33.4297 79.5938C33.5911 79.2708 33.7005 78.9115 33.7578 78.5156V77.1016C33.7266 76.7943 33.6615 76.5078 33.5625 76.2422C33.4688 75.9766 33.3411 75.7448 33.1797 75.5469C33.0182 75.3438 32.8177 75.1875 32.5781 75.0781C32.3438 74.9635 32.0651 74.9062 31.7422 74.9062C31.3984 74.9062 31.1068 74.9792 30.8672 75.125C30.6276 75.2708 30.4297 75.4714 30.2734 75.7266C30.1224 75.9818 30.0104 76.2786 29.9375 76.6172C29.8646 76.9557 29.8281 77.3177 29.8281 77.7031ZM39.3203 73.5469V82H37.4297V73.5469H39.3203ZM37.3047 71.3281C37.3047 71.0417 37.3984 70.8047 37.5859 70.6172C37.7786 70.4245 38.0443 70.3281 38.3828 70.3281C38.7161 70.3281 38.9792 70.4245 39.1719 70.6172C39.3646 70.8047 39.4609 71.0417 39.4609 71.3281C39.4609 71.6094 39.3646 71.8438 39.1719 72.0312C38.9792 72.2188 38.7161 72.3125 38.3828 72.3125C38.0443 72.3125 37.7786 72.2188 37.5859 72.0312C37.3984 71.8438 37.3047 71.6094 37.3047 71.3281ZM41.0234 77.8672V77.6875C41.0234 77.0781 41.112 76.513 41.2891 75.9922C41.4661 75.4661 41.7214 75.0104 42.0547 74.625C42.3932 74.2344 42.8047 73.9323 43.2891 73.7188C43.7786 73.5 44.3307 73.3906 44.9453 73.3906C45.5651 73.3906 46.1172 73.5 46.6016 73.7188C47.0911 73.9323 47.5052 74.2344 47.8438 74.625C48.1823 75.0104 48.4401 75.4661 48.6172 75.9922C48.7943 76.513 48.8828 77.0781 48.8828 77.6875V77.8672C48.8828 78.4766 48.7943 79.0417 48.6172 79.5625C48.4401 80.0833 48.1823 80.5391 47.8438 80.9297C47.5052 81.3151 47.0938 81.6172 46.6094 81.8359C46.125 82.0495 45.5755 82.1562 44.9609 82.1562C44.3411 82.1562 43.7865 82.0495 43.2969 81.8359C42.8125 81.6172 42.401 81.3151 42.0625 80.9297C41.724 80.5391 41.4661 80.0833 41.2891 79.5625C41.112 79.0417 41.0234 78.4766 41.0234 77.8672ZM42.9062 77.6875V77.8672C42.9062 78.2474 42.9453 78.6068 43.0234 78.9453C43.1016 79.2839 43.224 79.5807 43.3906 79.8359C43.5573 80.0911 43.7708 80.2917 44.0312 80.4375C44.2917 80.5833 44.6016 80.6562 44.9609 80.6562C45.3099 80.6562 45.612 80.5833 45.8672 80.4375C46.1276 80.2917 46.3411 80.0911 46.5078 79.8359C46.6745 79.5807 46.7969 79.2839 46.875 78.9453C46.9583 78.6068 47 78.2474 47 77.8672V77.6875C47 77.3125 46.9583 76.9583 46.875 76.625C46.7969 76.2865 46.6719 75.987 46.5 75.7266C46.3333 75.4661 46.1198 75.263 45.8594 75.1172C45.6042 74.9661 45.2995 74.8906 44.9453 74.8906C44.5911 74.8906 44.2839 74.9661 44.0234 75.1172C43.7682 75.263 43.5573 75.4661 43.3906 75.7266C43.224 75.987 43.1016 76.2865 43.0234 76.625C42.9453 76.9583 42.9062 77.3125 42.9062 77.6875ZM61.3516 78.2969H63.3047C63.2422 79.0417 63.0339 79.7057 62.6797 80.2891C62.3255 80.8672 61.8281 81.3229 61.1875 81.6562C60.5469 81.9896 59.7682 82.1562 58.8516 82.1562C58.1484 82.1562 57.5156 82.0312 56.9531 81.7812C56.3906 81.526 55.9089 81.1667 55.5078 80.7031C55.1068 80.2344 54.7995 79.6693 54.5859 79.0078C54.3776 78.3464 54.2734 77.6068 54.2734 76.7891V75.8438C54.2734 75.026 54.3802 74.2865 54.5938 73.625C54.8125 72.9635 55.125 72.3984 55.5312 71.9297C55.9375 71.4557 56.4245 71.0938 56.9922 70.8438C57.5651 70.5938 58.2083 70.4688 58.9219 70.4688C59.8281 70.4688 60.5938 70.6354 61.2188 70.9688C61.8438 71.3021 62.3281 71.763 62.6719 72.3516C63.0208 72.9401 63.2344 73.6146 63.3125 74.375H61.3594C61.3073 73.8854 61.1927 73.4661 61.0156 73.1172C60.8438 72.7682 60.5885 72.5026 60.25 72.3203C59.9115 72.1328 59.4688 72.0391 58.9219 72.0391C58.474 72.0391 58.0833 72.1224 57.75 72.2891C57.4167 72.4557 57.138 72.7005 56.9141 73.0234C56.6901 73.3464 56.5208 73.7448 56.4062 74.2188C56.2969 74.6875 56.2422 75.224 56.2422 75.8281V76.7891C56.2422 77.362 56.2917 77.8828 56.3906 78.3516C56.4948 78.8151 56.651 79.2135 56.8594 79.5469C57.0729 79.8802 57.3438 80.138 57.6719 80.3203C58 80.5026 58.3932 80.5938 58.8516 80.5938C59.4089 80.5938 59.8594 80.5052 60.2031 80.3281C60.5521 80.151 60.8151 79.8932 60.9922 79.5547C61.1745 79.2109 61.2943 78.7917 61.3516 78.2969ZM64.5391 77.8672V77.6875C64.5391 77.0781 64.6276 76.513 64.8047 75.9922C64.9818 75.4661 65.237 75.0104 65.5703 74.625C65.9089 74.2344 66.3203 73.9323 66.8047 73.7188C67.2943 73.5 67.8464 73.3906 68.4609 73.3906C69.0807 73.3906 69.6328 73.5 70.1172 73.7188C70.6068 73.9323 71.0208 74.2344 71.3594 74.625C71.6979 75.0104 71.9557 75.4661 72.1328 75.9922C72.3099 76.513 72.3984 77.0781 72.3984 77.6875V77.8672C72.3984 78.4766 72.3099 79.0417 72.1328 79.5625C71.9557 80.0833 71.6979 80.5391 71.3594 80.9297C71.0208 81.3151 70.6094 81.6172 70.125 81.8359C69.6406 82.0495 69.0911 82.1562 68.4766 82.1562C67.8568 82.1562 67.3021 82.0495 66.8125 81.8359C66.3281 81.6172 65.9167 81.3151 65.5781 80.9297C65.2396 80.5391 64.9818 80.0833 64.8047 79.5625C64.6276 79.0417 64.5391 78.4766 64.5391 77.8672ZM66.4219 77.6875V77.8672C66.4219 78.2474 66.4609 78.6068 66.5391 78.9453C66.6172 79.2839 66.7396 79.5807 66.9062 79.8359C67.0729 80.0911 67.2865 80.2917 67.5469 80.4375C67.8073 80.5833 68.1172 80.6562 68.4766 80.6562C68.8255 80.6562 69.1276 80.5833 69.3828 80.4375C69.6432 80.2917 69.8568 80.0911 70.0234 79.8359C70.1901 79.5807 70.3125 79.2839 70.3906 78.9453C70.474 78.6068 70.5156 78.2474 70.5156 77.8672V77.6875C70.5156 77.3125 70.474 76.9583 70.3906 76.625C70.3125 76.2865 70.1875 75.987 70.0156 75.7266C69.849 75.4661 69.6354 75.263 69.375 75.1172C69.1198 74.9661 68.8151 74.8906 68.4609 74.8906C68.1068 74.8906 67.7995 74.9661 67.5391 75.1172C67.2839 75.263 67.0729 75.4661 66.9062 75.7266C66.7396 75.987 66.6172 76.2865 66.5391 76.625C66.4609 76.9583 66.4219 77.3125 66.4219 77.6875ZM79.1328 80.25V70H81.0234V82H79.3125L79.1328 80.25ZM73.6328 77.8672V77.7031C73.6328 77.0625 73.7083 76.4792 73.8594 75.9531C74.0104 75.4219 74.2292 74.9661 74.5156 74.5859C74.8021 74.2005 75.151 73.9062 75.5625 73.7031C75.974 73.4948 76.4375 73.3906 76.9531 73.3906C77.4635 73.3906 77.9115 73.4896 78.2969 73.6875C78.6823 73.8854 79.0104 74.1693 79.2812 74.5391C79.5521 74.9036 79.7682 75.3411 79.9297 75.8516C80.0911 76.3568 80.2057 76.9193 80.2734 77.5391V78.0625C80.2057 78.6667 80.0911 79.2188 79.9297 79.7188C79.7682 80.2188 79.5521 80.651 79.2812 81.0156C79.0104 81.3802 78.6797 81.6615 78.2891 81.8594C77.9036 82.0573 77.4531 82.1562 76.9375 82.1562C76.4271 82.1562 75.9661 82.0495 75.5547 81.8359C75.1484 81.6224 74.8021 81.3229 74.5156 80.9375C74.2292 80.5521 74.0104 80.099 73.8594 79.5781C73.7083 79.0521 73.6328 78.4818 73.6328 77.8672ZM75.5156 77.7031V77.8672C75.5156 78.2526 75.5495 78.612 75.6172 78.9453C75.6901 79.2786 75.8021 79.5729 75.9531 79.8281C76.1042 80.0781 76.2995 80.276 76.5391 80.4219C76.7839 80.5625 77.0755 80.6328 77.4141 80.6328C77.8411 80.6328 78.1927 80.5391 78.4688 80.3516C78.7448 80.1641 78.9609 79.9115 79.1172 79.5938C79.2786 79.2708 79.388 78.9115 79.4453 78.5156V77.1016C79.4141 76.7943 79.349 76.5078 79.25 76.2422C79.1562 75.9766 79.0286 75.7448 78.8672 75.5469C78.7057 75.3438 78.5052 75.1875 78.2656 75.0781C78.0312 74.9635 77.7526 74.9062 77.4297 74.9062C77.0859 74.9062 76.7943 74.9792 76.5547 75.125C76.3151 75.2708 76.1172 75.4714 75.9609 75.7266C75.8099 75.9818 75.6979 76.2786 75.625 76.6172C75.5521 76.9557 75.5156 77.3177 75.5156 77.7031ZM86.7188 82.1562C86.0938 82.1562 85.5286 82.0547 85.0234 81.8516C84.5234 81.6432 84.0964 81.3542 83.7422 80.9844C83.3932 80.6146 83.125 80.1797 82.9375 79.6797C82.75 79.1797 82.6562 78.6406 82.6562 78.0625V77.75C82.6562 77.0885 82.7526 76.4896 82.9453 75.9531C83.138 75.4167 83.4062 74.9583 83.75 74.5781C84.0938 74.1927 84.5 73.8984 84.9688 73.6953C85.4375 73.4922 85.9453 73.3906 86.4922 73.3906C87.0964 73.3906 87.625 73.4922 88.0781 73.6953C88.5312 73.8984 88.9062 74.1849 89.2031 74.5547C89.5052 74.9193 89.7292 75.3542 89.875 75.8594C90.026 76.3646 90.1016 76.9219 90.1016 77.5312V78.3359H83.5703V76.9844H88.2422V76.8359C88.2318 76.4974 88.1641 76.1797 88.0391 75.8828C87.9193 75.5859 87.7344 75.3464 87.4844 75.1641C87.2344 74.9818 86.901 74.8906 86.4844 74.8906C86.1719 74.8906 85.8932 74.9583 85.6484 75.0938C85.4089 75.224 85.2083 75.4141 85.0469 75.6641C84.8854 75.9141 84.7604 76.2161 84.6719 76.5703C84.5885 76.9193 84.5469 77.3125 84.5469 77.75V78.0625C84.5469 78.4323 84.5964 78.776 84.6953 79.0938C84.7995 79.4062 84.9505 79.6797 85.1484 79.9141C85.3464 80.1484 85.5859 80.3333 85.8672 80.4688C86.1484 80.599 86.4688 80.6641 86.8281 80.6641C87.2812 80.6641 87.6849 80.5729 88.0391 80.3906C88.3932 80.2083 88.7005 79.9505 88.9609 79.6172L89.9531 80.5781C89.7708 80.8438 89.5339 81.099 89.2422 81.3438C88.9505 81.5833 88.5938 81.7786 88.1719 81.9297C87.7552 82.0807 87.2708 82.1562 86.7188 82.1562Z" fill="white"/>
<mask id="mask0_2085_1007" style="mask-type:alpha" maskUnits="userSpaceOnUse" x="22" y="14" width="50" height="50">
<path fill-rule="evenodd" clip-rule="evenodd" d="M57.456 63.6585C58.2435 63.9653 59.1414 63.9457 59.9362 63.5632L70.2304 58.6098C71.3121 58.0893 72 56.9946 72 55.7936V22.2066C72 21.0056 71.3121 19.9109 70.2304 19.3904L59.9362 14.4368C58.8931 13.9349 57.6723 14.0578 56.7567 14.7234C56.626 14.8185 56.5014 14.9247 56.3845 15.0417L36.6776 33.0207L28.0936 26.5048C27.2945 25.8982 26.1768 25.9479 25.4347 26.623L22.6815 29.1274C21.7737 29.9532 21.7727 31.3813 22.6793 32.2085L30.1236 39L22.6793 45.7916C21.7727 46.6187 21.7737 48.0469 22.6815 48.8726L25.4347 51.377C26.1768 52.0521 27.2945 52.1018 28.0936 51.4952L36.6776 44.9793L56.3845 62.9583C56.6962 63.2703 57.0623 63.5052 57.456 63.6585ZM59.5076 27.6494L44.5546 39L59.5076 50.3506V27.6494Z" fill="white"/>
</mask>
<g mask="url(#mask0_2085_1007)">
<path d="M70.2298 19.3983L59.9276 14.4379C58.7351 13.8638 57.31 14.106 56.3741 15.0418L22.6484 45.7918C21.7413 46.6188 21.7423 48.047 22.6507 48.8728L25.4055 51.3772C26.1481 52.0523 27.2665 52.102 28.066 51.4954L68.6796 20.6851C70.0421 19.6515 71.9991 20.6233 71.9991 22.3335V22.2139C71.9991 21.0134 71.3114 19.9191 70.2298 19.3983Z" fill="#0065A9"/>
<g filter="url(#filter1_d_2085_1007)">
<path d="M70.2298 58.6018L59.9276 63.5621C58.7351 64.1364 57.31 63.8941 56.3741 62.9582L22.6484 32.2083C21.7413 31.3812 21.7423 29.953 22.6507 29.1273L25.4055 26.6229C26.1481 25.9478 27.2665 25.8981 28.066 26.5046L68.6796 57.3149C70.0421 58.3486 71.9991 57.3768 71.9991 55.6666V55.7862C71.9991 56.9866 71.3114 58.081 70.2298 58.6018Z" fill="#007ACC"/>
</g>
<g filter="url(#filter2_d_2085_1007)">
<path d="M59.9289 63.5631C58.7361 64.1369 57.3109 63.8942 56.375 62.9582C57.5282 64.1114 59.5 63.2947 59.5 61.6638V16.336C59.5 14.7051 57.5282 13.8884 56.375 15.0416C57.3109 14.1056 58.7361 13.8631 59.9289 14.4367L70.2294 19.3903C71.3117 19.9108 72 21.0055 72 22.2065V55.7935C72 56.9945 71.3117 58.0892 70.2293 58.6097L59.9289 63.5631Z" fill="#1F9CF0"/>
</g>
<g style="mix-blend-mode:overlay" opacity="0.25">
<path fill-rule="evenodd" clip-rule="evenodd" d="M57.4247 63.6586C58.2122 63.9653 59.1102 63.9457 59.905 63.5632L70.1991 58.6099C71.2808 58.0894 71.9687 56.9946 71.9687 55.7935V22.2066C71.9687 21.0056 71.2809 19.9108 70.1992 19.3903L59.905 14.4368C58.8619 13.9349 57.641 14.0578 56.7255 14.7234C56.5947 14.8185 56.4701 14.9247 56.3532 15.0417L36.6463 33.0207L28.0623 26.5048C27.2633 25.8982 26.1456 25.948 25.4034 26.623L22.6503 29.1274C21.7425 29.9532 21.7414 31.3814 22.648 32.2085L30.0923 39L22.648 45.7916C21.7414 46.6187 21.7425 48.0469 22.6503 48.8726L25.4034 51.377C26.1456 52.0521 27.2633 52.1018 28.0623 51.4953L36.6463 44.9793L56.3532 62.9584C56.665 63.2703 57.031 63.5052 57.4247 63.6586ZM59.4763 27.6495L44.5233 39L59.4763 50.3506V27.6495Z" fill="url(#paint1_linear_2085_1007)"/>
</g>
</g>
<defs>
<filter id="filter0_d_2085_1007" x="0" y="0" width="101" height="101" filterUnits="userSpaceOnUse" color-interpolation-filters="sRGB">
<feFlood flood-opacity="0" result="BackgroundImageFix"/>
<feColorMatrix in="SourceAlpha" type="matrix" values="0 0 0 0 0 0 0 0 0 0 0 0 0 0 0 0 0 0 127 0" result="hardAlpha"/>
<feOffset dx="4" dy="4"/>
<feGaussianBlur stdDeviation="2"/>
<feComposite in2="hardAlpha" operator="out"/>
<feColorMatrix type="matrix" values="0 0 0 0 0 0 0 0 0 0 0 0 0 0 0 0 0 0 0.25 0"/>
<feBlend mode="normal" in2="BackgroundImageFix" result="effect1_dropShadow_2085_1007"/>
<feBlend mode="normal" in="SourceGraphic" in2="effect1_dropShadow_2085_1007" result="shape"/>
</filter>
<filter id="filter1_d_2085_1007" x="13.6354" y="17.7477" width="66.6979" height="54.4562" filterUnits="userSpaceOnUse" color-interpolation-filters="sRGB">
<feFlood flood-opacity="0" result="BackgroundImageFix"/>
<feColorMatrix in="SourceAlpha" type="matrix" values="0 0 0 0 0 0 0 0 0 0 0 0 0 0 0 0 0 0 127 0" result="hardAlpha"/>
<feOffset/>
<feGaussianBlur stdDeviation="4.16667"/>
<feColorMatrix type="matrix" values="0 0 0 0 0 0 0 0 0 0 0 0 0 0 0 0 0 0 0.25 0"/>
<feBlend mode="overlay" in2="BackgroundImageFix" result="effect1_dropShadow_2085_1007"/>
<feBlend mode="normal" in="SourceGraphic" in2="effect1_dropShadow_2085_1007" result="shape"/>
</filter>
<filter id="filter2_d_2085_1007" x="48.0417" y="5.79544" width="32.2917" height="66.409" filterUnits="userSpaceOnUse" color-interpolation-filters="sRGB">
<feFlood flood-opacity="0" result="BackgroundImageFix"/>
<feColorMatrix in="SourceAlpha" type="matrix" values="0 0 0 0 0 0 0 0 0 0 0 0 0 0 0 0 0 0 127 0" result="hardAlpha"/>
<feOffset/>
<feGaussianBlur stdDeviation="4.16667"/>
<feColorMatrix type="matrix" values="0 0 0 0 0 0 0 0 0 0 0 0 0 0 0 0 0 0 0.25 0"/>
<feBlend mode="overlay" in2="BackgroundImageFix" result="effect1_dropShadow_2085_1007"/>
<feBlend mode="normal" in="SourceGraphic" in2="effect1_dropShadow_2085_1007" result="shape"/>
</filter>
<linearGradient id="paint0_linear_2085_1007" x1="49" y1="93" x2="49" y2="6.47341e-07" gradientUnits="userSpaceOnUse">
<stop stop-color="#161827"/>
<stop offset="1" stop-color="#460948"/>
</linearGradient>
<linearGradient id="paint1_linear_2085_1007" x1="46.9687" y1="14.1289" x2="46.9687" y2="63.8712" gradientUnits="userSpaceOnUse">
<stop stop-color="white"/>
<stop offset="1" stop-color="white" stop-opacity="0"/>
</linearGradient>
</defs>
</svg>
