<svg width="101" height="101" viewBox="0 0 101 101" fill="none" xmlns="http://www.w3.org/2000/svg">
<g filter="url(#filter0_d_2085_1003)">
<rect width="93" height="93" rx="8" fill="url(#paint0_linear_2085_1003)"/>
</g>
<path d="M23.1562 70.625V82H21.2109V70.625H23.1562ZM26.7266 70.625V72.1875H17.6719V70.625H26.7266ZM31.7578 80.3047V76.2734C31.7578 75.9714 31.7031 75.7109 31.5938 75.4922C31.4844 75.2734 31.3177 75.1042 31.0938 74.9844C30.875 74.8646 30.599 74.8047 30.2656 74.8047C29.9583 74.8047 29.6927 74.8568 29.4688 74.9609C29.2448 75.0651 29.0703 75.2057 28.9453 75.3828C28.8203 75.5599 28.7578 75.7604 28.7578 75.9844H26.8828C26.8828 75.651 26.9635 75.3281 27.125 75.0156C27.2865 74.7031 27.5208 74.4245 27.8281 74.1797C28.1354 73.9349 28.5026 73.7422 28.9297 73.6016C29.3568 73.4609 29.8359 73.3906 30.3672 73.3906C31.0026 73.3906 31.5651 73.4974 32.0547 73.7109C32.5495 73.9245 32.9375 74.2474 33.2188 74.6797C33.5052 75.1068 33.6484 75.6432 33.6484 76.2891V80.0469C33.6484 80.4323 33.6745 80.7786 33.7266 81.0859C33.7839 81.388 33.8646 81.651 33.9688 81.875V82H32.0391C31.9505 81.7969 31.8802 81.5391 31.8281 81.2266C31.7812 80.9089 31.7578 80.6016 31.7578 80.3047ZM32.0312 76.8594L32.0469 78.0234H30.6953C30.3464 78.0234 30.0391 78.0573 29.7734 78.125C29.5078 78.1875 29.2865 78.2812 29.1094 78.4062C28.9323 78.5312 28.7995 78.6823 28.7109 78.8594C28.6224 79.0365 28.5781 79.237 28.5781 79.4609C28.5781 79.6849 28.6302 79.8906 28.7344 80.0781C28.8385 80.2604 28.9896 80.4036 29.1875 80.5078C29.3906 80.612 29.6354 80.6641 29.9219 80.6641C30.3073 80.6641 30.6432 80.5859 30.9297 80.4297C31.2214 80.2682 31.4505 80.0729 31.6172 79.8438C31.7839 79.6094 31.8724 79.388 31.8828 79.1797L32.4922 80.0156C32.4297 80.2292 32.3229 80.4583 32.1719 80.7031C32.0208 80.9479 31.8229 81.1823 31.5781 81.4062C31.3385 81.625 31.0495 81.8047 30.7109 81.9453C30.3776 82.0859 29.9922 82.1562 29.5547 82.1562C29.0026 82.1562 28.5104 82.0469 28.0781 81.8281C27.6458 81.6042 27.3073 81.3047 27.0625 80.9297C26.8177 80.5495 26.6953 80.1198 26.6953 79.6406C26.6953 79.1927 26.7786 78.7969 26.9453 78.4531C27.1172 78.1042 27.3672 77.8125 27.6953 77.5781C28.0286 77.3438 28.4349 77.1667 28.9141 77.0469C29.3932 76.9219 29.9401 76.8594 30.5547 76.8594H32.0312ZM37.6328 73.5469V82H35.7422V73.5469H37.6328ZM35.6172 71.3281C35.6172 71.0417 35.7109 70.8047 35.8984 70.6172C36.0911 70.4245 36.3568 70.3281 36.6953 70.3281C37.0286 70.3281 37.2917 70.4245 37.4844 70.6172C37.6771 70.8047 37.7734 71.0417 37.7734 71.3281C37.7734 71.6094 37.6771 71.8438 37.4844 72.0312C37.2917 72.2188 37.0286 72.3125 36.6953 72.3125C36.3568 72.3125 36.0911 72.2188 35.8984 72.0312C35.7109 71.8438 35.6172 71.6094 35.6172 71.3281ZM41.7109 70V82H39.8203V70H41.7109ZM46.0703 80.125L48.0234 73.5469H49.2266L48.8984 75.5156L46.9297 82H45.8516L46.0703 80.125ZM44.9219 73.5469L46.4453 80.1562L46.5703 82H45.3672L43.0781 73.5469H44.9219ZM51.0547 80.0781L52.5312 73.5469H54.3672L52.0859 82H50.8828L51.0547 80.0781ZM49.4297 73.5469L51.3594 80.0469L51.6016 82H50.5234L48.5312 75.5078L48.2031 73.5469H49.4297ZM57.6641 73.5469V82H55.7734V73.5469H57.6641ZM55.6484 71.3281C55.6484 71.0417 55.7422 70.8047 55.9297 70.6172C56.1224 70.4245 56.388 70.3281 56.7266 70.3281C57.0599 70.3281 57.3229 70.4245 57.5156 70.6172C57.7083 70.8047 57.8047 71.0417 57.8047 71.3281C57.8047 71.6094 57.7083 71.8438 57.5156 72.0312C57.3229 72.2188 57.0599 72.3125 56.7266 72.3125C56.388 72.3125 56.1224 72.2188 55.9297 72.0312C55.7422 71.8438 55.6484 71.6094 55.6484 71.3281ZM61.5938 75.3516V82H59.7109V73.5469H61.4844L61.5938 75.3516ZM61.2578 77.4609L60.6484 77.4531C60.6536 76.8542 60.737 76.3047 60.8984 75.8047C61.0651 75.3047 61.2943 74.875 61.5859 74.5156C61.8828 74.1562 62.237 73.8802 62.6484 73.6875C63.0599 73.4896 63.5182 73.3906 64.0234 73.3906C64.4297 73.3906 64.7969 73.4479 65.125 73.5625C65.4583 73.6719 65.7422 73.8516 65.9766 74.1016C66.2161 74.3516 66.3984 74.6771 66.5234 75.0781C66.6484 75.474 66.7109 75.9609 66.7109 76.5391V82H64.8203V76.5312C64.8203 76.125 64.7604 75.8047 64.6406 75.5703C64.526 75.3307 64.3568 75.1615 64.1328 75.0625C63.9141 74.9583 63.6406 74.9062 63.3125 74.9062C62.9896 74.9062 62.7005 74.974 62.4453 75.1094C62.1901 75.2448 61.974 75.4297 61.7969 75.6641C61.625 75.8984 61.4922 76.1693 61.3984 76.4766C61.3047 76.7839 61.2578 77.112 61.2578 77.4609ZM73.7891 80.25V70H75.6797V82H73.9688L73.7891 80.25ZM68.2891 77.8672V77.7031C68.2891 77.0625 68.3646 76.4792 68.5156 75.9531C68.6667 75.4219 68.8854 74.9661 69.1719 74.5859C69.4583 74.2005 69.8073 73.9062 70.2188 73.7031C70.6302 73.4948 71.0938 73.3906 71.6094 73.3906C72.1198 73.3906 72.5677 73.4896 72.9531 73.6875C73.3385 73.8854 73.6667 74.1693 73.9375 74.5391C74.2083 74.9036 74.4245 75.3411 74.5859 75.8516C74.7474 76.3568 74.862 76.9193 74.9297 77.5391V78.0625C74.862 78.6667 74.7474 79.2188 74.5859 79.7188C74.4245 80.2188 74.2083 80.651 73.9375 81.0156C73.6667 81.3802 73.3359 81.6615 72.9453 81.8594C72.5599 82.0573 72.1094 82.1562 71.5938 82.1562C71.0833 82.1562 70.6224 82.0495 70.2109 81.8359C69.8047 81.6224 69.4583 81.3229 69.1719 80.9375C68.8854 80.5521 68.6667 80.099 68.5156 79.5781C68.3646 79.0521 68.2891 78.4818 68.2891 77.8672ZM70.1719 77.7031V77.8672C70.1719 78.2526 70.2057 78.612 70.2734 78.9453C70.3464 79.2786 70.4583 79.5729 70.6094 79.8281C70.7604 80.0781 70.9557 80.276 71.1953 80.4219C71.4401 80.5625 71.7318 80.6328 72.0703 80.6328C72.4974 80.6328 72.849 80.5391 73.125 80.3516C73.401 80.1641 73.6172 79.9115 73.7734 79.5938C73.9349 79.2708 74.0443 78.9115 74.1016 78.5156V77.1016C74.0703 76.7943 74.0052 76.5078 73.9062 76.2422C73.8125 75.9766 73.6849 75.7448 73.5234 75.5469C73.362 75.3438 73.1615 75.1875 72.9219 75.0781C72.6875 74.9635 72.4089 74.9062 72.0859 74.9062C71.7422 74.9062 71.4505 74.9792 71.2109 75.125C70.9714 75.2708 70.7734 75.4714 70.6172 75.7266C70.4661 75.9818 70.3542 76.2786 70.2812 76.6172C70.2083 76.9557 70.1719 77.3177 70.1719 77.7031Z" fill="white"/>
<g clip-path="url(#clip0_2085_1003)">
<mask id="mask0_2085_1003" style="mask-type:luminance" maskUnits="userSpaceOnUse" x="6" y="14" width="82" height="50">
<path d="M6 14H87.8182V63.0909H6V14Z" fill="white"/>
</mask>
<g mask="url(#mask0_2085_1003)">
<path fill-rule="evenodd" clip-rule="evenodd" d="M46.9091 14C36 14 29.1818 19.4545 26.4545 30.3636C30.5455 24.9091 35.3182 22.8636 40.7727 24.2273C43.8848 25.0045 46.1091 27.2636 48.5712 29.7621C52.5818 33.8333 57.2242 38.5455 67.3636 38.5455C78.2727 38.5455 85.0909 33.0909 87.8182 22.1818C83.7273 27.6364 78.9545 29.6818 73.5 28.3182C70.3879 27.5409 68.1636 25.2818 65.7015 22.7833C61.6909 18.7121 57.0485 14 46.9091 14ZM26.4545 38.5455C15.5455 38.5455 8.72727 44 6 54.9091C10.0909 49.4545 14.8636 47.4091 20.3182 48.7727C23.4303 49.5515 25.6545 51.8091 28.1167 54.3076C32.1273 58.3788 36.7697 63.0909 46.9091 63.0909C57.8182 63.0909 64.6364 57.6364 67.3636 46.7273C63.2727 52.1818 58.5 54.2273 53.0455 52.8636C49.9333 52.0864 47.7091 49.8273 45.247 47.3288C41.2364 43.2576 36.5939 38.5455 26.4545 38.5455Z" fill="#38BDF8"/>
</g>
</g>
<defs>
<filter id="filter0_d_2085_1003" x="0" y="0" width="101" height="101" filterUnits="userSpaceOnUse" color-interpolation-filters="sRGB">
<feFlood flood-opacity="0" result="BackgroundImageFix"/>
<feColorMatrix in="SourceAlpha" type="matrix" values="0 0 0 0 0 0 0 0 0 0 0 0 0 0 0 0 0 0 127 0" result="hardAlpha"/>
<feOffset dx="4" dy="4"/>
<feGaussianBlur stdDeviation="2"/>
<feComposite in2="hardAlpha" operator="out"/>
<feColorMatrix type="matrix" values="0 0 0 0 0 0 0 0 0 0 0 0 0 0 0 0 0 0 0.25 0"/>
<feBlend mode="normal" in2="BackgroundImageFix" result="effect1_dropShadow_2085_1003"/>
<feBlend mode="normal" in="SourceGraphic" in2="effect1_dropShadow_2085_1003" result="shape"/>
</filter>
<linearGradient id="paint0_linear_2085_1003" x1="49" y1="93" x2="49" y2="6.47341e-07" gradientUnits="userSpaceOnUse">
<stop stop-color="#161827"/>
<stop offset="1" stop-color="#460948"/>
</linearGradient>
<clipPath id="clip0_2085_1003">
<rect width="81.8182" height="50" fill="white" transform="translate(6 14)"/>
</clipPath>
</defs>
</svg>
