<svg width="101" height="101" viewBox="0 0 101 101" fill="none" xmlns="http://www.w3.org/2000/svg">
<g filter="url(#filter0_d_2085_1008)">
<rect width="93" height="93" rx="8" fill="url(#paint0_linear_2085_1008)"/>
</g>
<path d="M6.20654 78.9868L9.10522 69.9805H11.2017L7.25098 81H5.83569L6.20654 78.9868ZM3.52734 69.9805L6.40332 78.9868L6.79688 81H5.37402L1.43848 69.9805H3.52734ZM14.2063 72.811V81H12.3748V72.811H14.2063ZM12.2537 70.6616C12.2537 70.3841 12.3445 70.1545 12.5261 69.9729C12.7128 69.7862 12.9701 69.6929 13.2981 69.6929C13.621 69.6929 13.8758 69.7862 14.0625 69.9729C14.2492 70.1545 14.3425 70.3841 14.3425 70.6616C14.3425 70.9341 14.2492 71.1611 14.0625 71.3428C13.8758 71.5244 13.621 71.6152 13.2981 71.6152C12.9701 71.6152 12.7128 71.5244 12.5261 71.3428C12.3445 71.1611 12.2537 70.9341 12.2537 70.6616ZM20.7983 78.7825C20.7983 78.6008 20.7529 78.4368 20.6621 78.2905C20.5713 78.1392 20.3972 78.0029 20.1399 77.8818C19.8876 77.7607 19.5142 77.6497 19.0198 77.5488C18.5859 77.453 18.1873 77.3394 17.824 77.2083C17.4657 77.072 17.158 76.908 16.9006 76.7163C16.6433 76.5246 16.444 76.2975 16.3027 76.0352C16.1615 75.7728 16.0908 75.4701 16.0908 75.127C16.0908 74.7939 16.164 74.4786 16.3103 74.1809C16.4566 73.8832 16.666 73.6208 16.9385 73.3938C17.2109 73.1667 17.5414 72.9876 17.9299 72.8564C18.3235 72.7253 18.7625 72.6597 19.2468 72.6597C19.933 72.6597 20.5208 72.7757 21.0103 73.0078C21.5047 73.2349 21.8831 73.5452 22.1455 73.9387C22.4079 74.3272 22.5391 74.7662 22.5391 75.2556H20.7151C20.7151 75.0387 20.6596 74.8368 20.5486 74.6501C20.4426 74.4584 20.2812 74.3045 20.0642 74.1885C19.8472 74.0674 19.5748 74.0068 19.2468 74.0068C18.934 74.0068 18.6742 74.0573 18.4673 74.1582C18.2655 74.2541 18.1141 74.3802 18.0132 74.5366C17.9173 74.693 17.8694 74.8646 17.8694 75.0513C17.8694 75.1875 17.8946 75.3111 17.9451 75.4221C18.0006 75.5281 18.0914 75.6265 18.2175 75.7173C18.3437 75.8031 18.5152 75.8838 18.7322 75.9595C18.9542 76.0352 19.2317 76.1083 19.5647 76.179C20.1903 76.3101 20.7277 76.4792 21.1768 76.686C21.6309 76.8879 21.979 77.1502 22.2212 77.4731C22.4634 77.791 22.5845 78.1947 22.5845 78.6841C22.5845 79.0474 22.5063 79.3804 22.3499 79.6831C22.1985 79.9808 21.9765 80.2406 21.6838 80.4626C21.3912 80.6796 21.0405 80.8486 20.6318 80.9697C20.2282 81.0908 19.7741 81.1514 19.2695 81.1514C18.5278 81.1514 17.8997 81.0202 17.385 80.7578C16.8704 80.4904 16.4793 80.1498 16.2119 79.7361C15.9495 79.3173 15.8184 78.8834 15.8184 78.4343H17.5818C17.602 78.7724 17.6953 79.0423 17.8618 79.2441C18.0334 79.4409 18.2453 79.5847 18.4976 79.6755C18.7549 79.7613 19.0198 79.8042 19.2922 79.8042C19.6202 79.8042 19.8952 79.7613 20.1172 79.6755C20.3392 79.5847 20.5082 79.4636 20.6243 79.3123C20.7403 79.1558 20.7983 78.9792 20.7983 78.7825ZM29.1084 79.0701V72.811H30.9399V81H29.2144L29.1084 79.0701ZM29.3657 77.3672L29.9788 77.3521C29.9788 77.902 29.9182 78.4091 29.7971 78.8733C29.676 79.3324 29.4893 79.7336 29.2371 80.0767C28.9848 80.4147 28.6619 80.6796 28.2683 80.8713C27.8748 81.058 27.403 81.1514 26.853 81.1514C26.4544 81.1514 26.0886 81.0933 25.7556 80.9773C25.4226 80.8612 25.135 80.6821 24.8928 80.4399C24.6557 80.1978 24.4715 79.8824 24.3403 79.4939C24.2091 79.1054 24.1436 78.6412 24.1436 78.1013V72.811H25.9675V78.1165C25.9675 78.4141 26.0028 78.6639 26.0735 78.8657C26.1441 79.0625 26.24 79.2214 26.3611 79.3425C26.4822 79.4636 26.6235 79.5494 26.7849 79.5999C26.9464 79.6503 27.1179 79.6755 27.2996 79.6755C27.8193 79.6755 28.2279 79.5746 28.5256 79.3728C28.8284 79.1659 29.0428 78.8884 29.1689 78.5403C29.3001 78.1921 29.3657 77.8011 29.3657 77.3672ZM37.426 79.3577V75.4524C37.426 75.1597 37.373 74.9075 37.2671 74.6956C37.1611 74.4836 36.9997 74.3197 36.7827 74.2036C36.5708 74.0876 36.3034 74.0295 35.9805 74.0295C35.6828 74.0295 35.4255 74.08 35.2085 74.1809C34.9915 74.2818 34.8225 74.4181 34.7014 74.5896C34.5803 74.7611 34.5198 74.9554 34.5198 75.1724H32.7034C32.7034 74.8494 32.7816 74.5366 32.938 74.2339C33.0944 73.9312 33.3215 73.6612 33.6191 73.4241C33.9168 73.1869 34.2725 73.0002 34.6863 72.864C35.1 72.7278 35.5642 72.6597 36.0789 72.6597C36.6944 72.6597 37.2393 72.7631 37.7136 72.97C38.193 73.1768 38.5688 73.4897 38.8413 73.9084C39.1188 74.3222 39.2576 74.8419 39.2576 75.4675V79.1079C39.2576 79.4813 39.2828 79.8168 39.3333 80.1145C39.3888 80.4071 39.467 80.6619 39.5679 80.8789V81H37.6985C37.6127 80.8032 37.5446 80.5535 37.4941 80.2507C37.4487 79.943 37.426 79.6453 37.426 79.3577ZM37.6909 76.02L37.7061 77.1477H36.3967C36.0587 77.1477 35.761 77.1805 35.5037 77.2461C35.2463 77.3066 35.0319 77.3975 34.8604 77.5186C34.6888 77.6396 34.5601 77.786 34.4744 77.9575C34.3886 78.1291 34.3457 78.3233 34.3457 78.5403C34.3457 78.7572 34.3962 78.9565 34.4971 79.1382C34.598 79.3148 34.7443 79.4535 34.936 79.5544C35.1328 79.6554 35.37 79.7058 35.6475 79.7058C36.0208 79.7058 36.3463 79.6301 36.6238 79.4788C36.9063 79.3223 37.1283 79.1331 37.2898 78.9111C37.4513 78.6841 37.537 78.4696 37.5471 78.2678L38.1375 79.0776C38.0769 79.2845 37.9735 79.5065 37.8271 79.7437C37.6808 79.9808 37.4891 80.2078 37.252 80.4248C37.0199 80.6367 36.7398 80.8108 36.4119 80.947C36.0889 81.0833 35.7156 81.1514 35.2917 81.1514C34.7569 81.1514 34.2801 81.0454 33.8613 80.8335C33.4425 80.6165 33.1146 80.3264 32.8774 79.9631C32.6403 79.5948 32.5217 79.1785 32.5217 78.7144C32.5217 78.2804 32.6025 77.897 32.7639 77.564C32.9304 77.2259 33.1726 76.9434 33.4905 76.7163C33.8134 76.4893 34.2069 76.3177 34.6711 76.2017C35.1353 76.0806 35.6651 76.02 36.2605 76.02H37.6909ZM43.1174 69.375V81H41.2859V69.375H43.1174ZM54.9543 78.1619C54.9543 77.9348 54.919 77.733 54.8484 77.5564C54.7828 77.3798 54.6642 77.2183 54.4927 77.072C54.3211 76.9257 54.0789 76.7844 53.7661 76.6482C53.4583 76.5069 53.0648 76.3631 52.5854 76.2168C52.0607 76.0553 51.5763 75.8762 51.1323 75.6794C50.6934 75.4776 50.3099 75.2455 49.9819 74.9832C49.654 74.7157 49.3992 74.4105 49.2175 74.0674C49.0359 73.7192 48.9451 73.3181 48.9451 72.864C48.9451 72.415 49.0384 72.0063 49.2251 71.6379C49.4168 71.2696 49.6868 70.9517 50.0349 70.6843C50.3881 70.4119 50.8044 70.2025 51.2837 70.0562C51.763 69.9048 52.2928 69.8291 52.873 69.8291C53.6904 69.8291 54.3943 69.9805 54.9846 70.2832C55.58 70.5859 56.0366 70.9921 56.3545 71.5017C56.6774 72.0113 56.8389 72.5739 56.8389 73.1895H54.9543C54.9543 72.8262 54.8761 72.5058 54.7197 72.2283C54.5684 71.9457 54.3363 71.7237 54.0234 71.5623C53.7157 71.4008 53.3246 71.3201 52.8503 71.3201C52.4013 71.3201 52.0279 71.3882 51.7302 71.5244C51.4325 71.6606 51.2105 71.8448 51.0642 72.0769C50.9179 72.309 50.8447 72.5714 50.8447 72.864C50.8447 73.0709 50.8927 73.2601 50.9885 73.4316C51.0844 73.5981 51.2307 73.7546 51.4275 73.9009C51.6243 74.0422 51.8715 74.1759 52.1692 74.302C52.4669 74.4281 52.8175 74.5492 53.2212 74.6653C53.8317 74.8469 54.364 75.0487 54.8181 75.2708C55.2722 75.4877 55.6506 75.7349 55.9534 76.0125C56.2561 76.29 56.4832 76.6053 56.6345 76.9585C56.7859 77.3066 56.8616 77.7027 56.8616 78.1467C56.8616 78.6109 56.7682 79.0297 56.5815 79.4031C56.3949 79.7714 56.1274 80.0868 55.7793 80.3491C55.4362 80.6064 55.0225 80.8057 54.5381 80.947C54.0588 81.0833 53.5239 81.1514 52.9336 81.1514C52.4038 81.1514 51.8816 81.0807 51.3669 80.9395C50.8573 80.7982 50.3931 80.5837 49.9744 80.2961C49.5556 80.0035 49.2226 79.6402 48.9753 79.2063C48.7281 78.7673 48.6045 78.2552 48.6045 77.6699H50.5042C50.5042 78.0282 50.5647 78.3334 50.6858 78.5857C50.8119 78.838 50.986 79.0448 51.208 79.2063C51.43 79.3627 51.6873 79.4788 51.98 79.5544C52.2777 79.6301 52.5955 79.668 52.9336 79.668C53.3776 79.668 53.7485 79.6049 54.0461 79.4788C54.3489 79.3526 54.5759 79.176 54.7273 78.949C54.8787 78.7219 54.9543 78.4596 54.9543 78.1619ZM62.114 72.811V74.1431H57.4973V72.811H62.114ZM58.8293 70.8054H60.6533V78.7371C60.6533 78.9893 60.6886 79.1836 60.7593 79.3198C60.835 79.451 60.9384 79.5393 61.0696 79.5847C61.2008 79.6301 61.3547 79.6528 61.5312 79.6528C61.6574 79.6528 61.7785 79.6453 61.8945 79.6301C62.0106 79.615 62.1039 79.5999 62.1746 79.5847L62.1821 80.9773C62.0308 81.0227 61.8542 81.0631 61.6523 81.0984C61.4556 81.1337 61.2285 81.1514 60.9712 81.1514C60.5524 81.1514 60.1816 81.0782 59.8586 80.9319C59.5357 80.7805 59.2834 80.5358 59.1018 80.1978C58.9202 79.8597 58.8293 79.4106 58.8293 78.8506V70.8054ZM68.4487 79.0701V72.811H70.2803V81H68.5547L68.4487 79.0701ZM68.7061 77.3672L69.3191 77.3521C69.3191 77.902 69.2585 78.4091 69.1375 78.8733C69.0164 79.3324 68.8297 79.7336 68.5774 80.0767C68.3251 80.4147 68.0022 80.6796 67.6086 80.8713C67.2151 81.058 66.7433 81.1514 66.1934 81.1514C65.7948 81.1514 65.429 81.0933 65.0959 80.9773C64.7629 80.8612 64.4753 80.6821 64.2332 80.4399C63.996 80.1978 63.8118 79.8824 63.6807 79.4939C63.5495 79.1054 63.4839 78.6412 63.4839 78.1013V72.811H65.3079V78.1165C65.3079 78.4141 65.3432 78.6639 65.4138 78.8657C65.4845 79.0625 65.5803 79.2214 65.7014 79.3425C65.8225 79.4636 65.9638 79.5494 66.1252 79.5999C66.2867 79.6503 66.4583 79.6755 66.6399 79.6755C67.1596 79.6755 67.5683 79.5746 67.866 79.3728C68.1687 79.1659 68.3831 78.8884 68.5093 78.5403C68.6405 78.1921 68.7061 77.8011 68.7061 77.3672ZM77.1448 79.3047V69.375H78.9763V81H77.3188L77.1448 79.3047ZM71.8167 76.9963V76.8374C71.8167 76.2168 71.8898 75.6517 72.0361 75.1421C72.1825 74.6274 72.3944 74.186 72.6719 73.8176C72.9494 73.4443 73.2874 73.1592 73.686 72.9624C74.0846 72.7606 74.5337 72.6597 75.0332 72.6597C75.5277 72.6597 75.9616 72.7555 76.335 72.9473C76.7083 73.139 77.0262 73.414 77.2886 73.7722C77.5509 74.1254 77.7603 74.5492 77.9167 75.0437C78.0732 75.5331 78.1842 76.078 78.2498 76.6785V77.1855C78.1842 77.7708 78.0732 78.3057 77.9167 78.79C77.7603 79.2744 77.5509 79.6932 77.2886 80.0464C77.0262 80.3996 76.7058 80.672 76.3274 80.8638C75.954 81.0555 75.5176 81.1514 75.0181 81.1514C74.5236 81.1514 74.0771 81.0479 73.6785 80.8411C73.2849 80.6342 72.9494 80.3441 72.6719 79.9707C72.3944 79.5973 72.1825 79.1584 72.0361 78.6538C71.8898 78.1442 71.8167 77.5917 71.8167 76.9963ZM73.6406 76.8374V76.9963C73.6406 77.3697 73.6734 77.7179 73.739 78.0408C73.8097 78.3637 73.9181 78.6488 74.0645 78.896C74.2108 79.1382 74.4 79.3299 74.6321 79.4712C74.8692 79.6074 75.1518 79.6755 75.4797 79.6755C75.8935 79.6755 76.234 79.5847 76.5015 79.4031C76.7689 79.2214 76.9783 78.9767 77.1296 78.6689C77.2861 78.3561 77.392 78.008 77.4475 77.6245V76.2546C77.4172 75.9569 77.3542 75.6794 77.2583 75.4221C77.1675 75.1648 77.0439 74.9403 76.8875 74.7485C76.731 74.5518 76.5368 74.4004 76.3047 74.2944C76.0776 74.1834 75.8077 74.1279 75.4949 74.1279C75.1619 74.1279 74.8793 74.1986 74.6472 74.3398C74.4151 74.4811 74.2234 74.6754 74.072 74.9226C73.9257 75.1698 73.8172 75.4574 73.7466 75.7854C73.6759 76.1134 73.6406 76.464 73.6406 76.8374ZM82.8362 72.811V81H81.0046V72.811H82.8362ZM80.8835 70.6616C80.8835 70.3841 80.9744 70.1545 81.156 69.9729C81.3427 69.7862 81.6 69.6929 81.928 69.6929C82.2509 69.6929 82.5057 69.7862 82.6924 69.9729C82.8791 70.1545 82.9724 70.3841 82.9724 70.6616C82.9724 70.9341 82.8791 71.1611 82.6924 71.3428C82.5057 71.5244 82.2509 71.6152 81.928 71.6152C81.6 71.6152 81.3427 71.5244 81.156 71.3428C80.9744 71.1611 80.8835 70.9341 80.8835 70.6616ZM84.4861 76.9963V76.8223C84.4861 76.2319 84.5719 75.6845 84.7434 75.1799C84.915 74.6703 85.1622 74.2288 85.4851 73.8555C85.8131 73.4771 86.2117 73.1844 86.6809 72.9775C87.1552 72.7656 87.69 72.6597 88.2854 72.6597C88.8858 72.6597 89.4207 72.7656 89.8899 72.9775C90.3642 73.1844 90.7653 73.4771 91.0933 73.8555C91.4212 74.2288 91.671 74.6703 91.8425 75.1799C92.0141 75.6845 92.0999 76.2319 92.0999 76.8223V76.9963C92.0999 77.5867 92.0141 78.1341 91.8425 78.6387C91.671 79.1432 91.4212 79.5847 91.0933 79.9631C90.7653 80.3365 90.3667 80.6292 89.8975 80.8411C89.4282 81.0479 88.8959 81.1514 88.3005 81.1514C87.7001 81.1514 87.1628 81.0479 86.6885 80.8411C86.2192 80.6292 85.8206 80.3365 85.4927 79.9631C85.1647 79.5847 84.915 79.1432 84.7434 78.6387C84.5719 78.1341 84.4861 77.5867 84.4861 76.9963ZM86.3101 76.8223V76.9963C86.3101 77.3647 86.3479 77.7128 86.4236 78.0408C86.4993 78.3687 86.6178 78.6563 86.7793 78.9036C86.9408 79.1508 87.1476 79.3451 87.3999 79.4863C87.6522 79.6276 87.9524 79.6982 88.3005 79.6982C88.6386 79.6982 88.9312 79.6276 89.1785 79.4863C89.4307 79.3451 89.6376 79.1508 89.7991 78.9036C89.9605 78.6563 90.0791 78.3687 90.1548 78.0408C90.2355 77.7128 90.2759 77.3647 90.2759 76.9963V76.8223C90.2759 76.459 90.2355 76.1159 90.1548 75.793C90.0791 75.465 89.958 75.1749 89.7915 74.9226C89.63 74.6703 89.4232 74.4736 89.1709 74.3323C88.9237 74.186 88.6285 74.1128 88.2854 74.1128C87.9423 74.1128 87.6446 74.186 87.3923 74.3323C87.1451 74.4736 86.9408 74.6703 86.7793 74.9226C86.6178 75.1749 86.4993 75.465 86.4236 75.793C86.3479 76.1159 86.3101 76.459 86.3101 76.8223Z" fill="white"/>
<mask id="mask0_2085_1008" style="mask-type:luminance" maskUnits="userSpaceOnUse" x="22" y="14" width="50" height="50">
<path d="M71.6858 14.3142H22.3145V63.6856H71.6858V14.3142Z" fill="white"/>
</mask>
<g mask="url(#mask0_2085_1008)">
<mask id="mask1_2085_1008" style="mask-type:luminance" maskUnits="userSpaceOnUse" x="22" y="14" width="50" height="50">
<path d="M71.6858 14.3142H22.3145V63.6856H71.6858V14.3142Z" fill="white"/>
</mask>
<g mask="url(#mask1_2085_1008)">
<mask id="mask2_2085_1008" style="mask-type:alpha" maskUnits="userSpaceOnUse" x="22" y="14" width="50" height="50">
<path d="M31.3656 56.074L23.1376 49.9026C22.881 49.7121 22.6729 49.4639 22.5299 49.1779C22.3869 48.892 22.3131 48.5767 22.3145 48.2571V29.7428C22.3131 29.4232 22.3869 29.1078 22.5299 28.822C22.6729 28.5361 22.881 28.2879 23.1376 28.0973L31.3656 21.9259C31.1446 22.1335 30.9776 22.3918 30.879 22.6786C30.7805 22.9653 30.7534 23.2718 30.8002 23.5714V54.4285C30.7534 54.7282 30.7805 55.0346 30.879 55.3214C30.9776 55.6081 31.1446 55.8664 31.3656 56.074Z" fill="white"/>
<path d="M70.7694 22.8825C70.4303 22.6598 70.0332 22.5417 69.6275 22.5431C69.3648 22.5409 69.104 22.5907 68.8606 22.6894C68.6169 22.7882 68.3953 22.934 68.2081 23.1185L68.0646 23.2628L51.6486 38.9999L42.5659 47.7118L34.1627 55.7654L34.0185 55.9097C33.8315 56.0944 33.6099 56.2405 33.3663 56.3395C33.1227 56.4383 32.862 56.4881 32.5991 56.4858C32.154 56.485 31.7212 56.3406 31.3648 56.074L23.1367 49.9026C23.5548 50.2165 24.0767 50.3595 24.5964 50.3021C25.1161 50.2448 25.5944 49.9916 25.9339 49.594L35.0676 38.9899L42.5659 30.2882L55.7011 15.034C55.8917 14.808 56.1295 14.6266 56.3978 14.5023C56.6661 14.3779 56.9582 14.3137 57.254 14.3142C57.6597 14.3129 58.0567 14.431 58.3955 14.6537L70.7694 22.8825Z" fill="white"/>
<path d="M70.7694 55.1173L58.4266 63.346C58.0066 63.6202 57.5019 63.7338 57.005 63.6658C56.5083 63.5978 56.0525 63.3527 55.7218 62.9759L42.5659 47.7118L35.0676 38.9898L25.9339 28.395C25.5914 28.0014 25.1126 27.752 24.5938 27.6968C24.075 27.6416 23.5544 27.7846 23.1367 28.0973L31.3648 21.9258C31.7212 21.6592 32.154 21.5148 32.5991 21.5139C32.862 21.5117 33.1227 21.5614 33.3663 21.6603C33.6099 21.7592 33.8315 21.9053 34.0185 22.0901L34.1627 22.2344L42.5659 30.2881L51.6486 38.9999L68.0646 54.7371L68.2081 54.8812C68.3953 55.0658 68.6169 55.2116 68.8606 55.3104C69.104 55.4091 69.3648 55.4589 69.6275 55.4567C70.0332 55.4581 70.4303 55.34 70.7694 55.1173Z" fill="white"/>
<path d="M71.6861 24.5997V53.4003C71.6864 53.7397 71.603 54.0741 71.4432 54.3734C71.2835 54.6731 71.0523 54.9285 70.7703 55.1174L58.4275 63.3461C58.7096 63.1573 58.9407 62.9015 59.1004 62.6019C59.2599 62.3022 59.3433 61.9679 59.343 61.6282V16.3717C59.3385 16.0296 59.2498 15.6939 59.0848 15.3943C58.9197 15.0946 58.6833 14.8403 58.3965 14.6537L70.7703 22.8825C71.0515 23.0721 71.2823 23.3278 71.4418 23.6272C71.6016 23.9265 71.6852 24.2604 71.6861 24.5997Z" fill="white"/>
</mask>
<g mask="url(#mask2_2085_1008)">
<path d="M31.3656 56.074L23.1376 49.9026C22.881 49.7121 22.6729 49.4636 22.5299 49.178C22.3869 48.892 22.3131 48.5767 22.3145 48.2572V29.7428C22.3131 29.4232 22.3869 29.1078 22.5299 28.822C22.6729 28.5361 22.881 28.2879 23.1376 28.0973L31.3656 21.9259C31.1446 22.1335 30.9776 22.3918 30.879 22.6786C30.7805 22.9653 30.7534 23.2718 30.8002 23.5714V54.4286C30.7534 54.7282 30.7805 55.0346 30.879 55.3214C30.9776 55.6082 31.1446 55.8664 31.3656 56.074Z" fill="#5E438F"/>
<g filter="url(#filter1_dd_2085_1008)">
<path d="M70.7692 22.8825C70.4304 22.6598 70.0334 22.5417 69.6277 22.5431C69.3649 22.5409 69.1042 22.5907 68.8605 22.6894C68.6171 22.7882 68.3955 22.934 68.2083 23.1185L68.0647 23.2628L59.3212 31.6459L51.6487 38.9999L42.5659 47.7118L34.1627 55.7654L34.0185 55.9097C33.8315 56.0944 33.6099 56.2405 33.3663 56.3395C33.1227 56.4383 32.862 56.4881 32.5991 56.4858C32.154 56.485 31.7212 56.3406 31.3648 56.074L23.1367 49.9026C23.5547 50.2165 24.0767 50.3595 24.5964 50.3021C25.1161 50.2448 25.5944 49.9916 25.9339 49.594L30.5424 44.2457L35.0676 38.9899L42.5659 30.2882L55.701 15.034C55.8918 14.808 56.1296 14.6266 56.398 14.5023C56.666 14.3779 56.9584 14.3137 57.2538 14.3142C57.6595 14.3129 58.0566 14.431 58.3957 14.6537L70.7692 22.8825Z" fill="url(#paint1_linear_2085_1008)"/>
</g>
<g filter="url(#filter2_dd_2085_1008)">
<path d="M70.7692 55.1174L58.4264 63.3463C58.0068 63.6205 57.502 63.7339 57.0051 63.6659C56.5082 63.5979 56.0527 63.3531 55.722 62.9759L42.5659 47.7118L35.0676 38.9899L30.5424 33.7442L25.9339 28.3951C25.5914 28.0015 25.1126 27.7521 24.5938 27.6969C24.075 27.6416 23.5544 27.7847 23.1367 28.0973L31.3648 21.9259C31.7212 21.6593 32.154 21.5149 32.5991 21.514C32.862 21.5117 33.1227 21.5615 33.3663 21.6604C33.6099 21.7593 33.8315 21.9054 34.0185 22.0902L34.1627 22.2345L42.5659 30.2882L51.6487 38.9999L59.3321 46.3649L68.0647 54.7371L68.2083 54.8815C68.3955 55.0659 68.6171 55.2116 68.8605 55.3104C69.1042 55.4092 69.3649 55.459 69.6277 55.4567C70.0334 55.4581 70.4304 55.3401 70.7692 55.1174Z" fill="url(#paint2_linear_2085_1008)"/>
</g>
<g filter="url(#filter3_dd_2085_1008)">
<path d="M71.6861 24.5996V53.4C71.6864 53.7397 71.603 54.0738 71.4432 54.3734C71.2835 54.6728 71.0523 54.9285 70.7703 55.1174L58.4273 63.3461C58.7096 63.1572 58.9407 62.9015 59.1002 62.6018C59.2599 62.3022 59.3433 61.9678 59.343 61.6282V16.3715C59.3385 16.0295 59.2498 15.6938 59.0848 15.3942C58.9197 15.0945 58.6833 14.8402 58.3965 14.6536L70.7703 22.8824C71.0515 23.072 71.2821 23.3277 71.4418 23.6271C71.6013 23.9264 71.6852 24.2603 71.6861 24.5996Z" fill="url(#paint3_linear_2085_1008)"/>
</g>
</g>
</g>
</g>
<defs>
<filter id="filter0_d_2085_1008" x="0" y="0" width="101" height="101" filterUnits="userSpaceOnUse" color-interpolation-filters="sRGB">
<feFlood flood-opacity="0" result="BackgroundImageFix"/>
<feColorMatrix in="SourceAlpha" type="matrix" values="0 0 0 0 0 0 0 0 0 0 0 0 0 0 0 0 0 0 127 0" result="hardAlpha"/>
<feOffset dx="4" dy="4"/>
<feGaussianBlur stdDeviation="2"/>
<feComposite in2="hardAlpha" operator="out"/>
<feColorMatrix type="matrix" values="0 0 0 0 0 0 0 0 0 0 0 0 0 0 0 0 0 0 0.25 0"/>
<feBlend mode="normal" in2="BackgroundImageFix" result="effect1_dropShadow_2085_1008"/>
<feBlend mode="normal" in="SourceGraphic" in2="effect1_dropShadow_2085_1008" result="shape"/>
</filter>
<filter id="filter1_dd_2085_1008" x="17.9558" y="10.4285" width="57.9947" height="52.5337" filterUnits="userSpaceOnUse" color-interpolation-filters="sRGB">
<feFlood flood-opacity="0" result="BackgroundImageFix"/>
<feColorMatrix in="SourceAlpha" type="matrix" values="0 0 0 0 0 0 0 0 0 0 0 0 0 0 0 0 0 0 127 0" result="hardAlpha"/>
<feOffset dy="0.246095"/>
<feGaussianBlur stdDeviation="0.246095"/>
<feColorMatrix type="matrix" values="0 0 0 0 0 0 0 0 0 0 0 0 0 0 0 0 0 0 0.24 0"/>
<feBlend mode="normal" in2="BackgroundImageFix" result="effect1_dropShadow_2085_1008"/>
<feColorMatrix in="SourceAlpha" type="matrix" values="0 0 0 0 0 0 0 0 0 0 0 0 0 0 0 0 0 0 127 0" result="hardAlpha"/>
<feOffset dy="1.29524"/>
<feGaussianBlur stdDeviation="2.59048"/>
<feColorMatrix type="matrix" values="0 0 0 0 0 0 0 0 0 0 0 0 0 0 0 0 0 0 0.22 0"/>
<feBlend mode="normal" in2="effect1_dropShadow_2085_1008" result="effect2_dropShadow_2085_1008"/>
<feBlend mode="normal" in="SourceGraphic" in2="effect2_dropShadow_2085_1008" result="shape"/>
</filter>
<filter id="filter2_dd_2085_1008" x="17.9558" y="17.6282" width="57.9947" height="52.5332" filterUnits="userSpaceOnUse" color-interpolation-filters="sRGB">
<feFlood flood-opacity="0" result="BackgroundImageFix"/>
<feColorMatrix in="SourceAlpha" type="matrix" values="0 0 0 0 0 0 0 0 0 0 0 0 0 0 0 0 0 0 127 0" result="hardAlpha"/>
<feOffset dy="0.246095"/>
<feGaussianBlur stdDeviation="0.246095"/>
<feColorMatrix type="matrix" values="0 0 0 0 0 0 0 0 0 0 0 0 0 0 0 0 0 0 0.24 0"/>
<feBlend mode="normal" in2="BackgroundImageFix" result="effect1_dropShadow_2085_1008"/>
<feColorMatrix in="SourceAlpha" type="matrix" values="0 0 0 0 0 0 0 0 0 0 0 0 0 0 0 0 0 0 127 0" result="hardAlpha"/>
<feOffset dy="1.29524"/>
<feGaussianBlur stdDeviation="2.59048"/>
<feColorMatrix type="matrix" values="0 0 0 0 0 0 0 0 0 0 0 0 0 0 0 0 0 0 0.22 0"/>
<feBlend mode="normal" in2="effect1_dropShadow_2085_1008" result="effect2_dropShadow_2085_1008"/>
<feBlend mode="normal" in="SourceGraphic" in2="effect2_dropShadow_2085_1008" result="shape"/>
</filter>
<filter id="filter3_dd_2085_1008" x="42.8536" y="-0.889296" width="44.3748" height="79.7782" filterUnits="userSpaceOnUse" color-interpolation-filters="sRGB">
<feFlood flood-opacity="0" result="BackgroundImageFix"/>
<feColorMatrix in="SourceAlpha" type="matrix" values="0 0 0 0 0 0 0 0 0 0 0 0 0 0 0 0 0 0 127 0" result="hardAlpha"/>
<feOffset/>
<feGaussianBlur stdDeviation="0.129524"/>
<feColorMatrix type="matrix" values="0 0 0 0 0 0 0 0 0 0 0 0 0 0 0 0 0 0 0.24 0"/>
<feBlend mode="normal" in2="BackgroundImageFix" result="effect1_dropShadow_2085_1008"/>
<feColorMatrix in="SourceAlpha" type="matrix" values="0 0 0 0 0 0 0 0 0 0 0 0 0 0 0 0 0 0 127 0" result="hardAlpha"/>
<feOffset/>
<feGaussianBlur stdDeviation="7.77143"/>
<feColorMatrix type="matrix" values="0 0 0 0 0 0 0 0 0 0 0 0 0 0 0 0 0 0 0.3 0"/>
<feBlend mode="normal" in2="effect1_dropShadow_2085_1008" result="effect2_dropShadow_2085_1008"/>
<feBlend mode="normal" in="SourceGraphic" in2="effect2_dropShadow_2085_1008" result="shape"/>
</filter>
<linearGradient id="paint0_linear_2085_1008" x1="49" y1="93" x2="49" y2="6.47341e-07" gradientUnits="userSpaceOnUse">
<stop stop-color="#161827"/>
<stop offset="1" stop-color="#460948"/>
</linearGradient>
<linearGradient id="paint1_linear_2085_1008" x1="62.4278" y1="14.3142" x2="25.7671" y2="51.2123" gradientUnits="userSpaceOnUse">
<stop stop-color="#7252AA"/>
<stop offset="1" stop-color="#7252AA"/>
</linearGradient>
<linearGradient id="paint2_linear_2085_1008" x1="26.9423" y1="23.3139" x2="61.3992" y2="61.885" gradientUnits="userSpaceOnUse">
<stop stop-color="#AE7FE2"/>
<stop offset="1" stop-color="#9A70D4"/>
</linearGradient>
<linearGradient id="paint3_linear_2085_1008" x1="64.895" y1="13.6607" x2="64.895" y2="63.3047" gradientUnits="userSpaceOnUse">
<stop stop-color="#D59DFF"/>
<stop offset="1" stop-color="#C18EF1"/>
</linearGradient>
</defs>
</svg>
